<svg xmlns="http://www.w3.org/2000/svg" xmlns:xlink="http://www.w3.org/1999/xlink" contentStyleType="text/css" data-diagram-type="SEQUENCE" height="787px" preserveAspectRatio="none" style="width:1313px;height:787px;background:#FFFFFF;" version="1.1" viewBox="0 0 1313 787" width="1313px" zoomAndPan="magnify"><title>JEA &#8212; M&#233;canique d'un endpoint (d&#233;finition, enregistrement, invocation, contr&#244;le)</title><defs/><g><text fill="#000000" font-family="sans-serif" font-size="14" font-weight="bold" lengthAdjust="spacing" textLength="644.417" x="330.5967" y="27.9951">JEA &#8212; M&#233;canique d'un endpoint (d&#233;finition, enregistrement, invocation, contr&#244;le)</text><g><title>Security Team</title><rect fill="#000000" fill-opacity="0.00000" height="588.2578" width="8" x="78.6611" y="118.5938"/><line style="stroke:#181818;stroke-width:0.5;stroke-dasharray:5,5;" x1="82" x2="82" y1="118.5938" y2="706.8516"/></g><g><title>MGMT Host</title><rect fill="#000000" fill-opacity="0.00000" height="588.2578" width="8" x="512.6943" y="118.5938"/><line style="stroke:#181818;stroke-width:0.5;stroke-dasharray:5,5;" x1="515.752" x2="515.752" y1="118.5938" y2="706.8516"/></g><g><title>PowerShell</title><rect fill="#000000" fill-opacity="0.00000" height="588.2578" width="8" x="817.8296" y="118.5938"/><line style="stroke:#181818;stroke-width:0.5;stroke-dasharray:5,5;" x1="821.4023" x2="821.4023" y1="118.5938" y2="706.8516"/></g><g><title>PowerShell</title><rect fill="#000000" fill-opacity="0.00000" height="588.2578" width="8" x="1036.1475" y="118.5938"/><line style="stroke:#181818;stroke-width:0.5;stroke-dasharray:5,5;" x1="1039.2568" x2="1039.2568" y1="118.5938" y2="706.8516"/></g><g><title>Op.rateur .via PSM.</title><rect fill="#000000" fill-opacity="0.00000" height="588.2578" width="8" x="1223.8242" y="118.5938"/><line style="stroke:#181818;stroke-width:0.5;stroke-dasharray:5,5;" x1="1227.0381" x2="1227.0381" y1="118.5938" y2="706.8516"/></g><g class="participant participant-head" data-participant="SEC"><rect fill="#E2E2F0" height="46.5938" rx="2.5" ry="2.5" style="stroke:#181818;stroke-width:0.5;" width="115.3223" x="25" y="71"/><text fill="#000000" font-family="sans-serif" font-size="14" lengthAdjust="spacing" textLength="101.3223" x="32" y="90.9951">Security Team</text><text fill="#000000" font-family="sans-serif" font-size="14" lengthAdjust="spacing" textLength="85.0596" x="40.1313" y="107.292">(JEA Author)</text></g><g class="participant participant-tail" data-participant="SEC"><rect fill="#E2E2F0" height="46.5938" rx="2.5" ry="2.5" style="stroke:#181818;stroke-width:0.5;" width="115.3223" x="25" y="705.8516"/><text fill="#000000" font-family="sans-serif" font-size="14" lengthAdjust="spacing" textLength="101.3223" x="32" y="725.8467">Security Team</text><text fill="#000000" font-family="sans-serif" font-size="14" lengthAdjust="spacing" textLength="85.0596" x="40.1313" y="742.1436">(JEA Author)</text></g><g class="participant participant-head" data-participant="MGMT"><rect fill="#E2E2F0" height="46.5938" rx="2.5" ry="2.5" style="stroke:#181818;stroke-width:0.5;" width="93.8848" x="469.752" y="71"/><text fill="#000000" font-family="sans-serif" font-size="14" lengthAdjust="spacing" textLength="79.8848" x="476.752" y="90.9951">MGMT Host</text><text fill="#000000" font-family="sans-serif" font-size="14" lengthAdjust="spacing" textLength="72.1807" x="480.604" y="107.292">(T0 ou T1)</text></g><g class="participant participant-tail" data-participant="MGMT"><rect fill="#E2E2F0" height="46.5938" rx="2.5" ry="2.5" style="stroke:#181818;stroke-width:0.5;" width="93.8848" x="469.752" y="705.8516"/><text fill="#000000" font-family="sans-serif" font-size="14" lengthAdjust="spacing" textLength="79.8848" x="476.752" y="725.8467">MGMT Host</text><text fill="#000000" font-family="sans-serif" font-size="14" lengthAdjust="spacing" textLength="72.1807" x="480.604" y="742.1436">(T0 ou T1)</text></g><g class="participant participant-head" data-participant="RC"><rect fill="#E2E2F0" height="46.5938" rx="2.5" ry="2.5" style="stroke:#181818;stroke-width:0.5;" width="168.8545" x="737.4023" y="71"/><text fill="#000000" font-family="sans-serif" font-size="14" lengthAdjust="spacing" textLength="76.9795" x="783.3398" y="90.9951">PowerShell</text><text fill="#000000" font-family="sans-serif" font-size="14" lengthAdjust="spacing" textLength="154.8545" x="744.4023" y="107.292">Role Capability (.psrc)</text></g><g class="participant participant-tail" data-participant="RC"><rect fill="#E2E2F0" height="46.5938" rx="2.5" ry="2.5" style="stroke:#181818;stroke-width:0.5;" width="168.8545" x="737.4023" y="705.8516"/><text fill="#000000" font-family="sans-serif" font-size="14" lengthAdjust="spacing" textLength="76.9795" x="783.3398" y="725.8467">PowerShell</text><text fill="#000000" font-family="sans-serif" font-size="14" lengthAdjust="spacing" textLength="154.8545" x="744.4023" y="742.1436">Role Capability (.psrc)</text></g><g class="participant participant-head" data-participant="SC"><rect fill="#E2E2F0" height="46.5938" rx="2.5" ry="2.5" style="stroke:#181818;stroke-width:0.5;" width="167.7813" x="956.2568" y="71"/><text fill="#000000" font-family="sans-serif" font-size="14" lengthAdjust="spacing" textLength="76.9795" x="1001.6577" y="90.9951">PowerShell</text><text fill="#000000" font-family="sans-serif" font-size="14" lengthAdjust="spacing" textLength="153.7813" x="963.2568" y="107.292">Session Config (.pssc)</text></g><g class="participant participant-tail" data-participant="SC"><rect fill="#E2E2F0" height="46.5938" rx="2.5" ry="2.5" style="stroke:#181818;stroke-width:0.5;" width="167.7813" x="956.2568" y="705.8516"/><text fill="#000000" font-family="sans-serif" font-size="14" lengthAdjust="spacing" textLength="76.9795" x="1001.6577" y="725.8467">PowerShell</text><text fill="#000000" font-family="sans-serif" font-size="14" lengthAdjust="spacing" textLength="153.7813" x="963.2568" y="742.1436">Session Config (.pssc)</text></g><g class="participant participant-head" data-participant="OP"><text fill="#000000" font-family="sans-serif" font-size="14" lengthAdjust="spacing" textLength="141.5723" x="1154.0381" y="115.292">Op&#233;rateur (via PSM)</text><ellipse cx="1227.8242" cy="50.7969" fill="#E2E2F0" rx="8" ry="8" style="stroke:#181818;stroke-width:0.5;"/><path d="M1227.8242,58.7969 L1227.8242,85.7969 M1214.8242,66.7969 L1240.8242,66.7969 M1227.8242,85.7969 L1214.8242,100.7969 M1227.8242,85.7969 L1240.8242,100.7969" fill="none" style="stroke:#181818;stroke-width:0.5;"/></g><g class="participant participant-tail" data-participant="OP"><text fill="#000000" font-family="sans-serif" font-size="14" lengthAdjust="spacing" textLength="141.5723" x="1154.0381" y="718.8467">Op&#233;rateur (via PSM)</text><ellipse cx="1227.8242" cy="730.6484" fill="#E2E2F0" rx="8" ry="8" style="stroke:#181818;stroke-width:0.5;"/><path d="M1227.8242,738.6484 L1227.8242,765.6484 M1214.8242,746.6484 L1240.8242,746.6484 M1227.8242,765.6484 L1214.8242,780.6484 M1227.8242,765.6484 L1240.8242,780.6484" fill="none" style="stroke:#181818;stroke-width:0.5;"/></g><rect fill="#EEEEEE" height="3" style="stroke:#EEEEEE;stroke-width:1;" width="1306.6104" x="0" y="149.1602"/><line style="stroke:#000000;stroke-width:1;" x1="0" x2="1306.6104" y1="149.1602" y2="149.1602"/><line style="stroke:#000000;stroke-width:1;" x1="0" x2="1306.6104" y1="152.1602" y2="152.1602"/><rect fill="#EEEEEE" height="23.1328" style="stroke:#000000;stroke-width:2;" width="90.813" x="607.8987" y="138.5938"/><text fill="#000000" font-family="sans-serif" font-size="13" font-weight="bold" lengthAdjust="spacing" textLength="72.2871" x="613.8987" y="154.6606">D&#233;finition</text><g class="message" data-participant-1="SEC" data-participant-2="RC"><polygon fill="#181818" points="809.8296,188.8594,819.8296,192.8594,809.8296,196.8594,813.8296,192.8594" style="stroke:#181818;stroke-width:1;"/><line style="stroke:#181818;stroke-width:1;" x1="82.6611" x2="815.8296" y1="192.8594" y2="192.8594"/><text fill="#000000" font-family="sans-serif" font-size="13" lengthAdjust="spacing" textLength="386.1025" x="89.6611" y="187.7935">D&#233;finir cmdlets autoris&#233;es (modules, verbs/nouns, params)</text></g><g class="message" data-participant-1="SEC" data-participant-2="SC"><polygon fill="#181818" points="1028.1475,217.9922,1038.1475,221.9922,1028.1475,225.9922,1032.1475,221.9922" style="stroke:#181818;stroke-width:1;"/><line style="stroke:#181818;stroke-width:1;" x1="82.6611" x2="1034.1475" y1="221.9922" y2="221.9922"/><text fill="#000000" font-family="sans-serif" font-size="13" lengthAdjust="spacing" textLength="342.437" x="89.6611" y="216.9263">Associer RC &#224; des groupes AD (map: groupe -&gt; r&#244;le)</text></g><rect fill="#EEEEEE" height="3" style="stroke:#EEEEEE;stroke-width:1;" width="1306.6104" x="0" y="250.5586"/><line style="stroke:#000000;stroke-width:1;" x1="0" x2="1306.6104" y1="250.5586" y2="250.5586"/><line style="stroke:#000000;stroke-width:1;" x1="0" x2="1306.6104" y1="253.5586" y2="253.5586"/><rect fill="#EEEEEE" height="23.1328" style="stroke:#000000;stroke-width:2;" width="132.6631" x="586.9736" y="239.9922"/><text fill="#000000" font-family="sans-serif" font-size="13" font-weight="bold" lengthAdjust="spacing" textLength="114.1372" x="592.9736" y="256.0591">Enregistrement</text><g class="message" data-participant-1="SEC" data-participant-2="MGMT"><polygon fill="#181818" points="504.6943,290.2578,514.6943,294.2578,504.6943,298.2578,508.6943,294.2578" style="stroke:#181818;stroke-width:1;"/><line style="stroke:#181818;stroke-width:1;" x1="82.6611" x2="510.6943" y1="294.2578" y2="294.2578"/><text fill="#000000" font-family="sans-serif" font-size="13" lengthAdjust="spacing" textLength="312.7998" x="89.6611" y="289.1919">Publish module (RoleCapabilities/&lt;name&gt;.psrc)</text></g><g class="message" data-participant-1="SEC" data-participant-2="MGMT"><polygon fill="#181818" points="504.6943,319.3906,514.6943,323.3906,504.6943,327.3906,508.6943,323.3906" style="stroke:#181818;stroke-width:1;"/><line style="stroke:#181818;stroke-width:1;" x1="82.6611" x2="510.6943" y1="323.3906" y2="323.3906"/><text fill="#000000" font-family="sans-serif" font-size="13" lengthAdjust="spacing" textLength="410.0332" x="89.6611" y="318.3247">Register-PSSessionConfiguration -Name JEA-AD-Tx -Path &lt;SC&gt;</text></g><g class="message" data-participant-1="MGMT" data-participant-2="MGMT"><line style="stroke:#181818;stroke-width:1;" x1="516.6943" x2="558.6943" y1="352.5234" y2="352.5234"/><line style="stroke:#181818;stroke-width:1;" x1="558.6943" x2="558.6943" y1="352.5234" y2="365.5234"/><line style="stroke:#181818;stroke-width:1;" x1="517.6943" x2="558.6943" y1="365.5234" y2="365.5234"/><polygon fill="#181818" points="527.6943,361.5234,517.6943,365.5234,527.6943,369.5234,523.6943,365.5234" style="stroke:#181818;stroke-width:1;"/><text fill="#000000" font-family="sans-serif" font-size="13" lengthAdjust="spacing" textLength="279.9824" x="523.6943" y="347.4575">ACL sur endpoint (seuls groupes autoris&#233;s)</text></g><rect fill="#EEEEEE" height="3" style="stroke:#EEEEEE;stroke-width:1;" width="1306.6104" x="0" y="394.0898"/><line style="stroke:#000000;stroke-width:1;" x1="0" x2="1306.6104" y1="394.0898" y2="394.0898"/><line style="stroke:#000000;stroke-width:1;" x1="0" x2="1306.6104" y1="397.0898" y2="397.0898"/><rect fill="#EEEEEE" height="23.1328" style="stroke:#000000;stroke-width:2;" width="169.8223" x="568.394" y="383.5234"/><text fill="#000000" font-family="sans-serif" font-size="13" font-weight="bold" lengthAdjust="spacing" textLength="151.2964" x="574.394" y="399.5903">Invocation (via PSM)</text><g class="message" data-participant-1="OP" data-participant-2="MGMT"><polygon fill="#181818" points="527.6943,433.7891,517.6943,437.7891,527.6943,441.7891,523.6943,437.7891" style="stroke:#181818;stroke-width:1;"/><line style="stroke:#181818;stroke-width:1;" x1="521.6943" x2="1226.8242" y1="437.7891" y2="437.7891"/><text fill="#000000" font-family="sans-serif" font-size="13" lengthAdjust="spacing" textLength="309.6069" x="533.6943" y="432.7231">Enter-PSSession -ConfigurationName JEA-AD-Tx</text></g><g class="message" data-participant-1="MGMT" data-participant-2="MGMT"><line style="stroke:#181818;stroke-width:1;" x1="516.6943" x2="558.6943" y1="466.9219" y2="466.9219"/><line style="stroke:#181818;stroke-width:1;" x1="558.6943" x2="558.6943" y1="466.9219" y2="479.9219"/><line style="stroke:#181818;stroke-width:1;" x1="517.6943" x2="558.6943" y1="479.9219" y2="479.9219"/><polygon fill="#181818" points="527.6943,475.9219,517.6943,479.9219,527.6943,483.9219,523.6943,479.9219" style="stroke:#181818;stroke-width:1;"/><text fill="#000000" font-family="sans-serif" font-size="13" lengthAdjust="spacing" textLength="291.1353" x="523.6943" y="461.856">Cr&#233;e session *constrain&#233;e* (runspace limit&#233;)</text></g><path d="M521,492.9219 L521,547.9219 L863,547.9219 L863,502.9219 L853,492.9219 L521,492.9219" fill="#FEFFDD" style="stroke:#181818;stroke-width:0.5;"/><path d="M853,492.9219 L853,502.9219 L863,502.9219 L853,492.9219" fill="#FEFFDD" style="stroke:#181818;stroke-width:0.5;"/><text fill="#000000" font-family="sans-serif" font-size="13" lengthAdjust="spacing" textLength="321.1152" x="527" y="509.9888">- Seules les cmdlets whiteliste&#769;es sont disponibles</text><text fill="#000000" font-family="sans-serif" font-size="13" lengthAdjust="spacing" textLength="284.4321" x="527" y="525.1216">- Pas d'acc&#232;s fichier/registry hors p&#233;rim&#232;tre</text><text fill="#000000" font-family="sans-serif" font-size="13" lengthAdjust="spacing" textLength="172.085" x="527" y="540.2544">- Transcripts &amp; logs sign&#233;s</text><rect fill="#EEEEEE" height="3" style="stroke:#EEEEEE;stroke-width:1;" width="1306.6104" x="0" y="573.8867"/><line style="stroke:#000000;stroke-width:1;" x1="0" x2="1306.6104" y1="573.8867" y2="573.8867"/><line style="stroke:#000000;stroke-width:1;" x1="0" x2="1306.6104" y1="576.8867" y2="576.8867"/><rect fill="#EEEEEE" height="23.1328" style="stroke:#000000;stroke-width:2;" width="150.1064" x="578.252" y="563.3203"/><text fill="#000000" font-family="sans-serif" font-size="13" font-weight="bold" lengthAdjust="spacing" textLength="131.5806" x="584.252" y="579.3872">Ex&#233;cution &amp; Audit</text><g class="message" data-participant-1="OP" data-participant-2="MGMT"><polygon fill="#181818" points="527.6943,613.5859,517.6943,617.5859,527.6943,621.5859,523.6943,617.5859" style="stroke:#181818;stroke-width:1;"/><line style="stroke:#181818;stroke-width:1;" x1="521.6943" x2="1226.8242" y1="617.5859" y2="617.5859"/><text fill="#000000" font-family="sans-serif" font-size="13" lengthAdjust="spacing" textLength="376.1367" x="533.6943" y="612.52">Ex&#233;cute cmdlets (ex: Get-ADUser, Set-ADAccountControl)</text></g><g class="message" data-participant-1="MGMT" data-participant-2="MGMT"><line style="stroke:#181818;stroke-width:1;" x1="516.6943" x2="558.6943" y1="646.7188" y2="646.7188"/><line style="stroke:#181818;stroke-width:1;" x1="558.6943" x2="558.6943" y1="646.7188" y2="659.7188"/><line style="stroke:#181818;stroke-width:1;" x1="517.6943" x2="558.6943" y1="659.7188" y2="659.7188"/><polygon fill="#181818" points="527.6943,655.7188,517.6943,659.7188,527.6943,663.7188,523.6943,659.7188" style="stroke:#181818;stroke-width:1;"/><text fill="#000000" font-family="sans-serif" font-size="13" lengthAdjust="spacing" textLength="236.4502" x="523.6943" y="641.6528">Journalise transcript / ETW / Sysmon</text></g><g class="message" data-participant-1="MGMT" data-participant-2="SEC"><polygon fill="#181818" points="93.6611,684.8516,83.6611,688.8516,93.6611,692.8516,89.6611,688.8516" style="stroke:#181818;stroke-width:1;"/><line style="stroke:#181818;stroke-width:1;stroke-dasharray:2,2;" x1="87.6611" x2="515.6943" y1="688.8516" y2="688.8516"/><text fill="#000000" font-family="sans-serif" font-size="13" lengthAdjust="spacing" textLength="168.0225" x="99.6611" y="683.7856">Export des logs vers SIEM</text></g><!--SRC=[TLHBSjf04Dth55rUsCA5WfqbPLn5PCgnAmILHIeRRuPH0rsHPfIPaOrtoHroW2pDFZVGDgV8IT8ZyJ5EPG68dduzhr-_bYEN8zoEXl3dsmyOrsif57sj4BAJIW6ghDIa78HPlPwJ8aTQTJbiS47M6InGkIwGUj1Ij6TIAsVgNpbsWi1-8LKA8mf8X74agHJA9IBBI2tWxTcBytTwjOsVdmL1kK-7enHbPSWzmHH5SQz2JtPOkQKsdICG5j9HV0WONu-dy5vRnydJCz0LJC_RL7zoc9leHpJf4lFyNjrfbY8MfPXHxkyBtvJMo1Pv5_yVbwArt3l4MirfqS3i1fR6WP1E6pYQbFNQ28ULWV2112Jfk4sP944m6C3LNc0O309k2g9BlhQ_FJ4WYon7Pq5KN95ilKOBOQ6pAaVRXGSqCzjJkbByfr7LThPbKYupj5PBGiCreVu96OCNHbSb_mwlk8ue-vk0Hsn7oCn61zD-GSwhsOUackLabz0IWT2hk1EHqFOkb2ZmijNo47hNr4KJ9Ub6mrR2oZHcWkWZ8xqve-5LD5r1b0YtX8iqlWoQ6UyA3UCFO5dPlLyjLlc-mPrYjctfPcVO_J1yOvDaNtEa3fX1TC3jaDahEh7XsO3T04zv9LWzGOgZfn0Qdb0f949E1RbwtGcKTWY65ai7UjwQ52225FramN-setzSaiFSY_RxEuSjBnjaP4kjQCPv3InXKsKdGihwsSASv9A7tjkCy0buRInuBr9HF_DC6yZK26MbePAlE8PSBxWqBPYl3LXIyFnQAwpu1L4rkXtp3cRa_b6jpS0Tun1NVRX6nq9zicYwt9L_7ah9JdMnVrlelFDAm5jT6IMuJmItemOz64q_ytVwP0kjDX3lxb7iBowrSOsj6_wy3hn-DwFnNm00]--></g></svg>