<svg xmlns="http://www.w3.org/2000/svg" xmlns:xlink="http://www.w3.org/1999/xlink" contentStyleType="text/css" data-diagram-type="SEQUENCE" height="1078px" preserveAspectRatio="none" style="width:2248px;height:1078px;background:#FFFFFF;" version="1.1" viewBox="0 0 2248 1078" width="2248px" zoomAndPan="magnify"><title>T1 Admin &#8212; Demande d'acc&#232;s JIT (IIQ -&gt; Orchestrateur -&gt; CyberArk PSM -&gt; JEA T1 -&gt; AD T1)</title><defs/><g><text fill="#000000" font-family="sans-serif" font-size="14" font-weight="bold" lengthAdjust="spacing" textLength="729.2168" x="755.7268" y="27.9951">T1 Admin &#8212; Demande d'acc&#232;s JIT (IIQ -&gt; Orchestrateur -&gt; CyberArk PSM -&gt; JEA T1 -&gt; AD T1)</text><rect fill="#D6EAF8" height="1029.4453" style="stroke:#181818;stroke-width:0.5;" width="539.1157" x="11" y="43.2969"/><text fill="#000000" font-family="sans-serif" font-size="13" font-weight="bold" lengthAdjust="spacing" textLength="208.8569" x="176.1294" y="55.3638">Tier-1 (IAM &amp; Orchestration)</text><rect fill="#FDEDEC" height="1029.4453" style="stroke:#181818;stroke-width:0.5;" width="1100.3042" x="764.125" y="43.2969"/><text fill="#000000" font-family="sans-serif" font-size="13" font-weight="bold" lengthAdjust="spacing" textLength="283.791" x="1172.3816" y="55.3638">Tier-0 (Contr&#244;les privil&#233;gi&#233;s / AD Core)</text><rect fill="#E8DAEF" height="1029.4453" style="stroke:#181818;stroke-width:0.5;" width="344.2412" x="1886.4292" y="43.2969"/><text fill="#000000" font-family="sans-serif" font-size="13" font-weight="bold" lengthAdjust="spacing" textLength="196.9932" x="1960.0532" y="55.3638">Poste &amp; Identit&#233; op&#233;rateur</text><g><title>SailPoint IIQ</title><rect fill="#000000" fill-opacity="0.00000" height="683.9219" width="8" x="120.2842" y="155.0234"/><line style="stroke:#181818;stroke-width:0.5;stroke-dasharray:5,5;" x1="124" x2="124" y1="155.0234" y2="838.9453"/></g><line style="stroke:#181818;stroke-width:0.5;stroke-dasharray:1,4;" x1="124" x2="124" y1="838.9453" y2="879.75"/><g><title>SailPoint IIQ</title><rect fill="#000000" fill-opacity="0.00000" height="97.3984" width="8" x="120.2842" y="879.75"/><line style="stroke:#181818;stroke-width:0.5;stroke-dasharray:5,5;" x1="124" x2="124" y1="879.75" y2="977.1484"/></g><g><title>Orchestrateur CI.CD</title><rect fill="#000000" fill-opacity="0.00000" height="683.9219" width="8" x="421.6514" y="155.0234"/><line style="stroke:#181818;stroke-width:0.5;stroke-dasharray:5,5;" x1="425.187" x2="425.187" y1="155.0234" y2="838.9453"/></g><line style="stroke:#181818;stroke-width:0.5;stroke-dasharray:1,4;" x1="425.187" x2="425.187" y1="838.9453" y2="879.75"/><g><title>Orchestrateur CI.CD</title><rect fill="#000000" fill-opacity="0.00000" height="97.3984" width="8" x="421.6514" y="879.75"/><line style="stroke:#181818;stroke-width:0.5;stroke-dasharray:5,5;" x1="425.187" x2="425.187" y1="879.75" y2="977.1484"/></g><g><title>CyberArk PVWA</title><rect fill="#000000" fill-opacity="0.00000" height="683.9219" width="8" x="842.3101" y="155.0234"/><line style="stroke:#181818;stroke-width:0.5;stroke-dasharray:5,5;" x1="846.125" x2="846.125" y1="155.0234" y2="838.9453"/></g><line style="stroke:#181818;stroke-width:0.5;stroke-dasharray:1,4;" x1="846.125" x2="846.125" y1="838.9453" y2="879.75"/><g><title>CyberArk PVWA</title><rect fill="#000000" fill-opacity="0.00000" height="97.3984" width="8" x="842.3101" y="879.75"/><line style="stroke:#181818;stroke-width:0.5;stroke-dasharray:5,5;" x1="846.125" x2="846.125" y1="879.75" y2="977.1484"/></g><g><title>CyberArk PSM.PSMP</title><rect fill="#000000" fill-opacity="0.00000" height="683.9219" width="8" x="1103.5156" y="155.0234"/><line style="stroke:#181818;stroke-width:0.5;stroke-dasharray:5,5;" x1="1106.9243" x2="1106.9243" y1="155.0234" y2="838.9453"/></g><line style="stroke:#181818;stroke-width:0.5;stroke-dasharray:1,4;" x1="1106.9243" x2="1106.9243" y1="838.9453" y2="879.75"/><g><title>CyberArk PSM.PSMP</title><rect fill="#000000" fill-opacity="0.00000" height="97.3984" width="8" x="1103.5156" y="879.75"/><line style="stroke:#181818;stroke-width:0.5;stroke-dasharray:5,5;" x1="1106.9243" x2="1106.9243" y1="879.75" y2="977.1484"/></g><g><title>Host de gestion T1</title><rect fill="#000000" fill-opacity="0.00000" height="683.9219" width="8" x="1474.7959" y="155.0234"/><line style="stroke:#181818;stroke-width:0.5;stroke-dasharray:5,5;" x1="1478.7358" x2="1478.7358" y1="155.0234" y2="838.9453"/></g><line style="stroke:#181818;stroke-width:0.5;stroke-dasharray:1,4;" x1="1478.7358" x2="1478.7358" y1="838.9453" y2="879.75"/><g><title>Host de gestion T1</title><rect fill="#000000" fill-opacity="0.00000" height="97.3984" width="8" x="1474.7959" y="879.75"/><line style="stroke:#181818;stroke-width:0.5;stroke-dasharray:5,5;" x1="1478.7358" x2="1478.7358" y1="879.75" y2="977.1484"/></g><g><title>AD DS .T1 scope.</title><rect fill="#000000" fill-opacity="0.00000" height="683.9219" width="8" x="1729.1426" y="155.0234"/><line style="stroke:#181818;stroke-width:0.5;stroke-dasharray:5,5;" x1="1732.856" x2="1732.856" y1="155.0234" y2="838.9453"/></g><line style="stroke:#181818;stroke-width:0.5;stroke-dasharray:1,4;" x1="1732.856" x2="1732.856" y1="838.9453" y2="879.75"/><g><title>AD DS .T1 scope.</title><rect fill="#000000" fill-opacity="0.00000" height="97.3984" width="8" x="1729.1426" y="879.75"/><line style="stroke:#181818;stroke-width:0.5;stroke-dasharray:5,5;" x1="1732.856" x2="1732.856" y1="879.75" y2="977.1484"/></g><g><title>SecOps Approver</title><rect fill="#000000" fill-opacity="0.00000" height="683.9219" width="8" x="1950.0161" y="155.0234"/><line style="stroke:#181818;stroke-width:0.5;stroke-dasharray:5,5;" x1="1953.4292" x2="1953.4292" y1="155.0234" y2="838.9453"/></g><line style="stroke:#181818;stroke-width:0.5;stroke-dasharray:1,4;" x1="1953.4292" x2="1953.4292" y1="838.9453" y2="879.75"/><g><title>SecOps Approver</title><rect fill="#000000" fill-opacity="0.00000" height="97.3984" width="8" x="1950.0161" y="879.75"/><line style="stroke:#181818;stroke-width:0.5;stroke-dasharray:5,5;" x1="1953.4292" x2="1953.4292" y1="879.75" y2="977.1484"/></g><g><title>Admin humain .identit. T2.</title><rect fill="#000000" fill-opacity="0.00000" height="683.9219" width="8" x="2123.1367" y="155.0234"/><line style="stroke:#181818;stroke-width:0.5;stroke-dasharray:5,5;" x1="2126.603" x2="2126.603" y1="155.0234" y2="838.9453"/></g><line style="stroke:#181818;stroke-width:0.5;stroke-dasharray:1,4;" x1="2126.603" x2="2126.603" y1="838.9453" y2="879.75"/><g><title>Admin humain .identit. T2.</title><rect fill="#000000" fill-opacity="0.00000" height="97.3984" width="8" x="2123.1367" y="879.75"/><line style="stroke:#181818;stroke-width:0.5;stroke-dasharray:5,5;" x1="2126.603" x2="2126.603" y1="879.75" y2="977.1484"/></g><g class="participant participant-head" data-participant="IIQ"><rect fill="#E2E2F0" height="46.5938" rx="2.5" ry="2.5" style="stroke:#181818;stroke-width:0.5;" width="178.5684" x="35" y="107.4297"/><text fill="#000000" font-family="sans-serif" font-size="14" lengthAdjust="spacing" textLength="84.2324" x="82.168" y="127.4248">SailPoint IIQ</text><text fill="#000000" font-family="sans-serif" font-size="14" lengthAdjust="spacing" textLength="164.5684" x="42" y="143.7217">(Workflow &amp; approvals)</text></g><g class="participant participant-tail" data-participant="IIQ"><rect fill="#E2E2F0" height="46.5938" rx="2.5" ry="2.5" style="stroke:#181818;stroke-width:0.5;" width="178.5684" x="35" y="976.1484"/><text fill="#000000" font-family="sans-serif" font-size="14" lengthAdjust="spacing" textLength="84.2324" x="82.168" y="996.1436">SailPoint IIQ</text><text fill="#000000" font-family="sans-serif" font-size="14" lengthAdjust="spacing" textLength="164.5684" x="42" y="1012.4404">(Workflow &amp; approvals)</text></g><g class="participant participant-head" data-participant="ORCH"><rect fill="#E2E2F0" height="46.5938" rx="2.5" ry="2.5" style="stroke:#181818;stroke-width:0.5;" width="200.9287" x="325.187" y="107.4297"/><text fill="#000000" font-family="sans-serif" font-size="14" lengthAdjust="spacing" textLength="141.4355" x="354.9336" y="127.4248">Orchestrateur CI/CD</text><text fill="#000000" font-family="sans-serif" font-size="14" lengthAdjust="spacing" textLength="186.9287" x="332.187" y="143.7217">(GitHub Actions + Ansible)</text></g><g class="participant participant-tail" data-participant="ORCH"><rect fill="#E2E2F0" height="46.5938" rx="2.5" ry="2.5" style="stroke:#181818;stroke-width:0.5;" width="200.9287" x="325.187" y="976.1484"/><text fill="#000000" font-family="sans-serif" font-size="14" lengthAdjust="spacing" textLength="141.4355" x="354.9336" y="996.1436">Orchestrateur CI/CD</text><text fill="#000000" font-family="sans-serif" font-size="14" lengthAdjust="spacing" textLength="186.9287" x="332.187" y="1012.4404">(GitHub Actions + Ansible)</text></g><g class="participant participant-head" data-participant="PVWA"><text fill="#000000" font-family="sans-serif" font-size="14" lengthAdjust="spacing" textLength="110.6465" x="787.9868" y="135.4248">CyberArk PVWA</text><text fill="#000000" font-family="sans-serif" font-size="14" lengthAdjust="spacing" textLength="150.3701" x="768.125" y="151.7217">(Approvals, vault, JIT)</text><path d="M828.3101,86.4297 C828.3101,76.4297 846.3101,76.4297 846.3101,76.4297 C846.3101,76.4297 864.3101,76.4297 864.3101,86.4297 L864.3101,112.4297 C864.3101,122.4297 846.3101,122.4297 846.3101,122.4297 C846.3101,122.4297 828.3101,122.4297 828.3101,112.4297 L828.3101,86.4297" fill="#E2E2F0" style="stroke:#181818;stroke-width:0.5;"/><path d="M828.3101,86.4297 C828.3101,96.4297 846.3101,96.4297 846.3101,96.4297 C846.3101,96.4297 864.3101,96.4297 864.3101,86.4297" fill="none" style="stroke:#181818;stroke-width:0.5;"/></g><g class="participant participant-tail" data-participant="PVWA"><text fill="#000000" font-family="sans-serif" font-size="14" lengthAdjust="spacing" textLength="110.6465" x="787.9868" y="989.1436">CyberArk PVWA</text><text fill="#000000" font-family="sans-serif" font-size="14" lengthAdjust="spacing" textLength="150.3701" x="768.125" y="1005.4404">(Approvals, vault, JIT)</text><path d="M828.3101,1018.7422 C828.3101,1008.7422 846.3101,1008.7422 846.3101,1008.7422 C846.3101,1008.7422 864.3101,1008.7422 864.3101,1018.7422 L864.3101,1044.7422 C864.3101,1054.7422 846.3101,1054.7422 846.3101,1054.7422 C846.3101,1054.7422 828.3101,1054.7422 828.3101,1044.7422 L828.3101,1018.7422" fill="#E2E2F0" style="stroke:#181818;stroke-width:0.5;"/><path d="M828.3101,1018.7422 C828.3101,1028.7422 846.3101,1028.7422 846.3101,1028.7422 C846.3101,1028.7422 864.3101,1028.7422 864.3101,1018.7422" fill="none" style="stroke:#181818;stroke-width:0.5;"/></g><g class="participant participant-head" data-participant="PSM"><rect fill="#E2E2F0" height="46.5938" rx="2.5" ry="2.5" style="stroke:#181818;stroke-width:0.5;" width="155.1826" x="1029.9243" y="107.4297"/><text fill="#000000" font-family="sans-serif" font-size="14" lengthAdjust="spacing" textLength="141.1826" x="1036.9243" y="127.4248">CyberArk PSM/PSMP</text><text fill="#000000" font-family="sans-serif" font-size="14" lengthAdjust="spacing" textLength="114.4746" x="1050.2783" y="143.7217">(Session broker)</text></g><g class="participant participant-tail" data-participant="PSM"><rect fill="#E2E2F0" height="46.5938" rx="2.5" ry="2.5" style="stroke:#181818;stroke-width:0.5;" width="155.1826" x="1029.9243" y="976.1484"/><text fill="#000000" font-family="sans-serif" font-size="14" lengthAdjust="spacing" textLength="141.1826" x="1036.9243" y="996.1436">CyberArk PSM/PSMP</text><text fill="#000000" font-family="sans-serif" font-size="14" lengthAdjust="spacing" textLength="114.4746" x="1050.2783" y="1012.4404">(Session broker)</text></g><g class="participant participant-head" data-participant="MGMT_T1"><rect fill="#E2E2F0" height="46.5938" rx="2.5" ry="2.5" style="stroke:#181818;stroke-width:0.5;" width="194.1201" x="1381.7358" y="107.4297"/><text fill="#000000" font-family="sans-serif" font-size="14" lengthAdjust="spacing" textLength="131.7969" x="1412.8975" y="127.4248">Host de gestion T1</text><text fill="#000000" font-family="sans-serif" font-size="14" lengthAdjust="spacing" textLength="180.1201" x="1388.7358" y="143.7217">(Endpoint JEA-T1 + RSAT)</text></g><g class="participant participant-tail" data-participant="MGMT_T1"><rect fill="#E2E2F0" height="46.5938" rx="2.5" ry="2.5" style="stroke:#181818;stroke-width:0.5;" width="194.1201" x="1381.7358" y="976.1484"/><text fill="#000000" font-family="sans-serif" font-size="14" lengthAdjust="spacing" textLength="131.7969" x="1412.8975" y="996.1436">Host de gestion T1</text><text fill="#000000" font-family="sans-serif" font-size="14" lengthAdjust="spacing" textLength="180.1201" x="1388.7358" y="1012.4404">(Endpoint JEA-T1 + RSAT)</text></g><g class="participant participant-head" data-participant="AD_T1"><rect fill="#E2E2F0" height="46.5938" rx="2.5" ry="2.5" style="stroke:#181818;stroke-width:0.5;" width="214.5732" x="1625.856" y="107.4297"/><text fill="#000000" font-family="sans-serif" font-size="14" lengthAdjust="spacing" textLength="122.8145" x="1671.7354" y="127.4248">AD DS (T1 scope)</text><text fill="#000000" font-family="sans-serif" font-size="14" lengthAdjust="spacing" textLength="200.5732" x="1632.856" y="143.7217">Groupes T1 non permanents</text></g><g class="participant participant-tail" data-participant="AD_T1"><rect fill="#E2E2F0" height="46.5938" rx="2.5" ry="2.5" style="stroke:#181818;stroke-width:0.5;" width="214.5732" x="1625.856" y="976.1484"/><text fill="#000000" font-family="sans-serif" font-size="14" lengthAdjust="spacing" textLength="122.8145" x="1671.7354" y="996.1436">AD DS (T1 scope)</text><text fill="#000000" font-family="sans-serif" font-size="14" lengthAdjust="spacing" textLength="200.5732" x="1632.856" y="1012.4404">Groupes T1 non permanents</text></g><g class="participant participant-head" data-participant="APPROVER"><text fill="#000000" font-family="sans-serif" font-size="14" lengthAdjust="spacing" textLength="121.1738" x="1890.4292" y="151.7217">SecOps Approver</text><ellipse cx="1954.0161" cy="87.2266" fill="#E2E2F0" rx="8" ry="8" style="stroke:#181818;stroke-width:0.5;"/><path d="M1954.0161,95.2266 L1954.0161,122.2266 M1941.0161,103.2266 L1967.0161,103.2266 M1954.0161,122.2266 L1941.0161,137.2266 M1954.0161,122.2266 L1967.0161,137.2266" fill="none" style="stroke:#181818;stroke-width:0.5;"/></g><g class="participant participant-tail" data-participant="APPROVER"><text fill="#000000" font-family="sans-serif" font-size="14" lengthAdjust="spacing" textLength="121.1738" x="1890.4292" y="989.1436">SecOps Approver</text><ellipse cx="1954.0161" cy="1000.9453" fill="#E2E2F0" rx="8" ry="8" style="stroke:#181818;stroke-width:0.5;"/><path d="M1954.0161,1008.9453 L1954.0161,1035.9453 M1941.0161,1016.9453 L1967.0161,1016.9453 M1954.0161,1035.9453 L1941.0161,1050.9453 M1954.0161,1035.9453 L1967.0161,1050.9453" fill="none" style="stroke:#181818;stroke-width:0.5;"/></g><g class="participant participant-head" data-participant="HUMAN"><text fill="#000000" font-family="sans-serif" font-size="14" lengthAdjust="spacing" textLength="193.0674" x="2027.603" y="135.4248">Admin humain (identit&#233; T2)</text><text fill="#000000" font-family="sans-serif" font-size="14" lengthAdjust="spacing" textLength="149.0166" x="2049.6284" y="151.7217">connect&#233; sur PAW T1</text><ellipse cx="2127.1367" cy="70.9297" fill="#E2E2F0" rx="8" ry="8" style="stroke:#181818;stroke-width:0.5;"/><path d="M2127.1367,78.9297 L2127.1367,105.9297 M2114.1367,86.9297 L2140.1367,86.9297 M2127.1367,105.9297 L2114.1367,120.9297 M2127.1367,105.9297 L2140.1367,120.9297" fill="none" style="stroke:#181818;stroke-width:0.5;"/></g><g class="participant participant-tail" data-participant="HUMAN"><text fill="#000000" font-family="sans-serif" font-size="14" lengthAdjust="spacing" textLength="193.0674" x="2027.603" y="989.1436">Admin humain (identit&#233; T2)</text><text fill="#000000" font-family="sans-serif" font-size="14" lengthAdjust="spacing" textLength="149.0166" x="2049.6284" y="1005.4404">connect&#233; sur PAW T1</text><ellipse cx="2127.1367" cy="1017.2422" fill="#E2E2F0" rx="8" ry="8" style="stroke:#181818;stroke-width:0.5;"/><path d="M2127.1367,1025.2422 L2127.1367,1052.2422 M2114.1367,1033.2422 L2140.1367,1033.2422 M2127.1367,1052.2422 L2114.1367,1067.2422 M2127.1367,1052.2422 L2140.1367,1067.2422" fill="none" style="stroke:#181818;stroke-width:0.5;"/></g><rect fill="#EEEEEE" height="3" style="stroke:#EEEEEE;stroke-width:1;" width="2241.6704" x="0" y="185.5898"/><line style="stroke:#000000;stroke-width:1;" x1="0" x2="2241.6704" y1="185.5898" y2="185.5898"/><line style="stroke:#000000;stroke-width:1;" x1="0" x2="2241.6704" y1="188.5898" y2="188.5898"/><rect fill="#EEEEEE" height="23.1328" style="stroke:#000000;stroke-width:2;" width="139.3091" x="1051.1807" y="175.0234"/><text fill="#000000" font-family="sans-serif" font-size="13" font-weight="bold" lengthAdjust="spacing" textLength="120.7832" x="1057.1807" y="191.0903">Demande via IIQ</text><g class="message" data-participant-1="HUMAN" data-participant-2="IIQ"><polygon fill="#181818" points="135.2842,225.2891,125.2842,229.2891,135.2842,233.2891,131.2842,229.2891" style="stroke:#181818;stroke-width:1;"/><line style="stroke:#181818;stroke-width:1;" x1="129.2842" x2="2126.1367" y1="229.2891" y2="229.2891"/><text fill="#000000" font-family="sans-serif" font-size="13" lengthAdjust="spacing" textLength="309.2959" x="141.2842" y="224.2231">Demande d'acc&#232;s T1 (raison, dur&#233;e, p&#233;rim&#232;tre)</text></g><g class="message" data-participant-1="IIQ" data-participant-2="IIQ"><line style="stroke:#181818;stroke-width:1;" x1="124.2842" x2="166.2842" y1="258.4219" y2="258.4219"/><line style="stroke:#181818;stroke-width:1;" x1="166.2842" x2="166.2842" y1="258.4219" y2="271.4219"/><line style="stroke:#181818;stroke-width:1;" x1="125.2842" x2="166.2842" y1="271.4219" y2="271.4219"/><polygon fill="#181818" points="135.2842,267.4219,125.2842,271.4219,135.2842,275.4219,131.2842,271.4219" style="stroke:#181818;stroke-width:1;"/><text fill="#000000" font-family="sans-serif" font-size="13" lengthAdjust="spacing" textLength="245.1846" x="131.2842" y="253.356">Workflow d'approbation (S&#233;cu + Mgr)</text></g><g class="message" data-participant-1="IIQ" data-participant-2="ORCH"><polygon fill="#181818" points="413.6514,296.5547,423.6514,300.5547,413.6514,304.5547,417.6514,300.5547" style="stroke:#181818;stroke-width:1;"/><line style="stroke:#181818;stroke-width:1;" x1="124.2842" x2="419.6514" y1="300.5547" y2="300.5547"/><text fill="#000000" font-family="sans-serif" font-size="13" lengthAdjust="spacing" textLength="277.3672" x="131.2842" y="295.4888">Webhook "Grant T1 JIT" (payload d&#233;cision)</text></g><rect fill="#EEEEEE" height="3" style="stroke:#EEEEEE;stroke-width:1;" width="2241.6704" x="0" y="329.1211"/><line style="stroke:#000000;stroke-width:1;" x1="0" x2="2241.6704" y1="329.1211" y2="329.1211"/><line style="stroke:#000000;stroke-width:1;" x1="0" x2="2241.6704" y1="332.1211" y2="332.1211"/><rect fill="#EEEEEE" height="23.1328" style="stroke:#000000;stroke-width:2;" width="213.7861" x="1013.9421" y="318.5547"/><text fill="#000000" font-family="sans-serif" font-size="13" font-weight="bold" lengthAdjust="spacing" textLength="195.2603" x="1019.9421" y="334.6216">Pr&#233;paration c&#244;t&#233; CyberArk</text><g class="message" data-participant-1="ORCH" data-participant-2="PVWA"><polygon fill="#181818" points="834.3101,368.8203,844.3101,372.8203,834.3101,376.8203,838.3101,372.8203" style="stroke:#181818;stroke-width:1;"/><line style="stroke:#181818;stroke-width:1;" x1="425.6514" x2="840.3101" y1="372.8203" y2="372.8203"/><text fill="#000000" font-family="sans-serif" font-size="13" lengthAdjust="spacing" textLength="396.6587" x="432.6514" y="367.7544">Cr&#233;er/MAJ policy JIT (groupe cible T1, dur&#233;e, enregistrement)</text></g><g class="message" data-participant-1="ORCH" data-participant-2="AD_T1"><polygon fill="#181818" points="1721.1426,397.9531,1731.1426,401.9531,1721.1426,405.9531,1725.1426,401.9531" style="stroke:#181818;stroke-width:1;"/><line style="stroke:#181818;stroke-width:1;" x1="425.6514" x2="1727.1426" y1="401.9531" y2="401.9531"/><text fill="#000000" font-family="sans-serif" font-size="13" lengthAdjust="spacing" textLength="458.2119" x="432.6514" y="396.8872">S'assure que le compte admin "a-&lt;user&gt;" existe (sans appartenance)</text></g><g class="message" data-participant-1="ORCH" data-participant-2="PVWA"><polygon fill="#181818" points="834.3101,427.0859,844.3101,431.0859,834.3101,435.0859,838.3101,431.0859" style="stroke:#181818;stroke-width:1;"/><line style="stroke:#181818;stroke-width:1;" x1="425.6514" x2="840.3101" y1="431.0859" y2="431.0859"/><text fill="#000000" font-family="sans-serif" font-size="13" lengthAdjust="spacing" textLength="283.6768" x="432.6514" y="426.02">Onboard "a-&lt;user&gt;" (sans secret divulgu&#233;)</text></g><rect fill="#EEEEEE" height="3" style="stroke:#EEEEEE;stroke-width:1;" width="2241.6704" x="0" y="459.6523"/><line style="stroke:#000000;stroke-width:1;" x1="0" x2="2241.6704" y1="459.6523" y2="459.6523"/><line style="stroke:#000000;stroke-width:1;" x1="0" x2="2241.6704" y1="462.6523" y2="462.6523"/><rect fill="#EEEEEE" height="23.1328" style="stroke:#000000;stroke-width:2;" width="206.7212" x="1017.4746" y="449.0859"/><text fill="#000000" font-family="sans-serif" font-size="13" font-weight="bold" lengthAdjust="spacing" textLength="188.1953" x="1023.4746" y="465.1528">Activation c&#244;t&#233; op&#233;rateur</text><g class="message" data-participant-1="HUMAN" data-participant-2="PVWA"><polygon fill="#181818" points="857.3101,499.3516,847.3101,503.3516,857.3101,507.3516,853.3101,503.3516" style="stroke:#181818;stroke-width:1;"/><line style="stroke:#181818;stroke-width:1;" x1="851.3101" x2="2126.1367" y1="503.3516" y2="503.3516"/><text fill="#000000" font-family="sans-serif" font-size="13" lengthAdjust="spacing" textLength="235.5933" x="863.3101" y="498.2856">Login SSO (via identit&#233; T2 licenci&#233;e)</text></g><g class="message" data-participant-1="PVWA" data-participant-2="APPROVER"><polygon fill="#181818" points="1942.0161,528.4844,1952.0161,532.4844,1942.0161,536.4844,1946.0161,532.4844" style="stroke:#181818;stroke-width:1;"/><line style="stroke:#181818;stroke-width:1;" x1="846.3101" x2="1948.0161" y1="532.4844" y2="532.4844"/><text fill="#000000" font-family="sans-serif" font-size="13" lengthAdjust="spacing" textLength="239.9731" x="853.3101" y="527.4185">Demande d'approbation finale (MFA)</text></g><g class="message" data-participant-1="APPROVER" data-participant-2="PVWA"><polygon fill="#181818" points="857.3101,557.6172,847.3101,561.6172,857.3101,565.6172,853.3101,561.6172" style="stroke:#181818;stroke-width:1;"/><line style="stroke:#181818;stroke-width:1;" x1="851.3101" x2="1953.0161" y1="561.6172" y2="561.6172"/><text fill="#000000" font-family="sans-serif" font-size="13" lengthAdjust="spacing" textLength="155.2192" x="863.3101" y="556.5513">Approve (dur&#233;e limit&#233;e)</text></g><rect fill="#EEEEEE" height="3" style="stroke:#EEEEEE;stroke-width:1;" width="2241.6704" x="0" y="590.1836"/><line style="stroke:#000000;stroke-width:1;" x1="0" x2="2241.6704" y1="590.1836" y2="590.1836"/><line style="stroke:#000000;stroke-width:1;" x1="0" x2="2241.6704" y1="593.1836" y2="593.1836"/><rect fill="#EEEEEE" height="23.1328" style="stroke:#000000;stroke-width:2;" width="188.3066" x="1026.6819" y="579.6172"/><text fill="#000000" font-family="sans-serif" font-size="13" font-weight="bold" lengthAdjust="spacing" textLength="169.7808" x="1032.6819" y="595.6841">Session proxifi&#233;e + JEA</text><g class="message" data-participant-1="HUMAN" data-participant-2="PSM"><polygon fill="#181818" points="1118.5156,629.8828,1108.5156,633.8828,1118.5156,637.8828,1114.5156,633.8828" style="stroke:#181818;stroke-width:1;"/><line style="stroke:#181818;stroke-width:1;" x1="1112.5156" x2="2126.1367" y1="633.8828" y2="633.8828"/><text fill="#000000" font-family="sans-serif" font-size="13" lengthAdjust="spacing" textLength="302.1802" x="1124.5156" y="628.8169">D&#233;marre session vers MGMT_T1 (ticket PVWA)</text></g><g class="message" data-participant-1="PSM" data-participant-2="MGMT_T1"><polygon fill="#181818" points="1466.7959,692.2813,1476.7959,696.2813,1466.7959,700.2813,1470.7959,696.2813" style="stroke:#181818;stroke-width:1;"/><line style="stroke:#181818;stroke-width:1;" x1="1107.5156" x2="1472.7959" y1="696.2813" y2="696.2813"/><text fill="#000000" font-family="sans-serif" font-size="13" lengthAdjust="spacing" textLength="347.2803" x="1114.5156" y="691.2153">Ouvre JEA endpoint "JEA-AD-T1" (cmdlets whitelistes)</text></g><path d="M1483,646.8828 L1483,731.8828 L1950,731.8828 L1950,656.8828 L1940,646.8828 L1483,646.8828" fill="#FEFFDD" style="stroke:#181818;stroke-width:0.5;"/><path d="M1940,646.8828 L1940,656.8828 L1950,656.8828 L1940,646.8828" fill="#FEFFDD" style="stroke:#181818;stroke-width:0.5;"/><text fill="#000000" font-family="sans-serif" font-size="13" lengthAdjust="spacing" textLength="446.126" x="1489" y="663.9497">Le compte admin "a-&lt;user&gt;" reste sans appartenance permanente.</text><text fill="#000000" font-family="sans-serif" font-size="13" lengthAdjust="spacing" textLength="127.2451" x="1489" y="679.0825">Le JIT applique soit:</text><text fill="#000000" font-family="sans-serif" font-size="13" lengthAdjust="spacing" textLength="334.001" x="1493.1323" y="694.2153">- une appartenance temporaire au(x) groupe(s) T1,</text><text fill="#000000" font-family="sans-serif" font-size="13" lengthAdjust="spacing" textLength="266.0811" x="1493.1323" y="709.3481">- soit un jeu de commandes JEA suffisant</text><text fill="#000000" font-family="sans-serif" font-size="13" lengthAdjust="spacing" textLength="236.1582" x="1489" y="724.481">le tout trac&#233; &amp; born&#233; dans le temps.</text><rect fill="#EEEEEE" height="3" style="stroke:#EEEEEE;stroke-width:1;" width="2241.6704" x="0" y="758.1133"/><line style="stroke:#000000;stroke-width:1;" x1="0" x2="2241.6704" y1="758.1133" y2="758.1133"/><line style="stroke:#000000;stroke-width:1;" x1="0" x2="2241.6704" y1="761.1133" y2="761.1133"/><rect fill="#EEEEEE" height="23.1328" style="stroke:#000000;stroke-width:2;" width="184.5044" x="1028.583" y="747.5469"/><text fill="#000000" font-family="sans-serif" font-size="13" font-weight="bold" lengthAdjust="spacing" textLength="165.9785" x="1034.583" y="763.6138">Ex&#233;cution &amp; extinction</text><g class="message" data-participant-1="HUMAN" data-participant-2="MGMT_T1"><polygon fill="#181818" points="1489.7959,797.8125,1479.7959,801.8125,1489.7959,805.8125,1485.7959,801.8125" style="stroke:#181818;stroke-width:1;"/><line style="stroke:#181818;stroke-width:1;" x1="1483.7959" x2="2126.1367" y1="801.8125" y2="801.8125"/><text fill="#000000" font-family="sans-serif" font-size="13" lengthAdjust="spacing" textLength="262.52" x="1495.7959" y="796.7466">Ex&#233;cute t&#226;ches (cmdlets autoris&#233;es JEA)</text></g><g class="message" data-participant-1="MGMT_T1" data-participant-2="AD_T1"><polygon fill="#181818" points="1721.1426,826.9453,1731.1426,830.9453,1721.1426,834.9453,1725.1426,830.9453" style="stroke:#181818;stroke-width:1;"/><line style="stroke:#181818;stroke-width:1;" x1="1478.7959" x2="1727.1426" y1="830.9453" y2="830.9453"/><text fill="#000000" font-family="sans-serif" font-size="13" lengthAdjust="spacing" textLength="157.6313" x="1485.7959" y="825.8794">Changements appliqu&#233;s</text></g><text fill="#000000" font-family="sans-serif" font-size="11" lengthAdjust="spacing" textLength="74.3467" x="1088.5371" y="863.1558">temps &#233;coul&#233;</text><g class="message" data-participant-1="PVWA" data-participant-2="AD_T1"><polygon fill="#181818" points="1721.1426,896.8828,1731.1426,900.8828,1721.1426,904.8828,1725.1426,900.8828" style="stroke:#181818;stroke-width:1;"/><line style="stroke:#181818;stroke-width:1;" x1="846.3101" x2="1727.1426" y1="900.8828" y2="900.8828"/><text fill="#000000" font-family="sans-serif" font-size="13" lengthAdjust="spacing" textLength="229.1567" x="853.3101" y="895.8169">Retire appartenance JIT (si utilis&#233;e)</text></g><g class="message" data-participant-1="PSM" data-participant-2="PVWA"><polygon fill="#181818" points="857.3101,926.0156,847.3101,930.0156,857.3101,934.0156,853.3101,930.0156" style="stroke:#181818;stroke-width:1;"/><line style="stroke:#181818;stroke-width:1;" x1="851.3101" x2="1106.5156" y1="930.0156" y2="930.0156"/><text fill="#000000" font-family="sans-serif" font-size="13" lengthAdjust="spacing" textLength="237.2056" x="863.3101" y="924.9497">Termine session / check-in / rotation</text></g><g class="message" data-participant-1="ORCH" data-participant-2="IIQ"><polygon fill="#181818" points="135.2842,955.1484,125.2842,959.1484,135.2842,963.1484,131.2842,959.1484" style="stroke:#181818;stroke-width:1;"/><line style="stroke:#181818;stroke-width:1;" x1="129.2842" x2="424.6514" y1="959.1484" y2="959.1484"/><text fill="#000000" font-family="sans-serif" font-size="13" lengthAdjust="spacing" textLength="261.3521" x="141.2842" y="954.0825">Journal (sessionId, horodatage, r&#233;sultat)</text></g><!--SRC=[TLNDRjj64BxpAGOAu528PSSv585H1s0b-GzHf5fgV0bGhCYrj1Mro-uk5VdMX-WJz1JTymPyapv9lrbAekIW1yCaDVFDD_Dzi-kLpoLDBYZ9bahJlt_zJJsv53gJbBqMQLfzStH_Dw7uxkvNwdoWeKtdqdahl2mjV-W-JwLDx896um6_t_SJXiDJqiD3EuhSGkb2MB6aaR1UfQeGsez4bYazetTl3tx_nQntto_UHj7KhAarKT9sBb0_6T39GNbbTBj5hte_zPFhzn5HqM1JQonKFZ8AZw3zHSUFnYwUSlCL2A8eh5c9t25REFxzPV9nYzsxysuF43VAtvPJIbAkxEWD9TgfQIvhcE53zpQIEYDmFYJ-bkAkqTvMttFfgB1gfV9gCrFLnj4vJwXhB4EykkxrU_qkg6J2YwbmabhDP3y_9c2Gx9YVqagKkJzbOUho7F6oZKDXpl4t0iHOEWVwDBLc8UqsTpnucNfhd2SuO8OnSFZa0hbzdHLXf52u0uNVqCCusTOVt0mclqykNkAWlzwOOWIxr1Io_KNVM5CMc0G-QG0Nqi9hKdiNO98UWnoFSGGk4hhTPGXJljgGAQfDBGxcrd_VI_hNA2nIRooKb-cm05AObRGrx6ZqCFpSVsYYQhFFowN0lrZjeIVlm34rMikKNntq7oMFO1jmRdyR99yQUbTN-rLPAS5EegkhA0In_V5- -UCkeV7O2kMCFgMijDL6dXBtevRLDmyhHDiz2zbxsoAT6ve6srCyhZPf2G46CxjFO0SYGqxdnYoeTMDP0LI3HreK5-8vDoAZ39cABT0E_4SWmAiNODFgEpUzzmsQOL06PtzTKfVfslD1Sa-5oLNwN9yCiw0ffRmDgDZq9RMLCuLDaaiCkBr72p9VqlYrS9Ymf3zBIKXDpRA0r29eqnATdqidxOSMoRLY2yHEOEym1pXCQg5JsNx1RwYdHjZiCBTESZAr4evMgpAVbTMcRfvNUNNKUkEi8oLhz8zc1bxZyP1YbllGD8HXI9rYgy69eqENMzSTcU10nIUb1RgE1zT9Eze5D-Ms3gQudYPABBcQhBdl5XanQ_N4XM47FdgFU8y7A5vjbi9YocwRWgtOBop5MDO5HiCrGRq-mhS_Og3b2eaCAtVBt-BjJteTNeauNMQvz8w-pfMNEQlasf4s4CkgsTnZtpx-lwnMige_YDgS2VAi1c2J8I9Nx1DdbB_4T-fGgULnffVBmc2vm5cKyRfDjJDZrsPRracSZqpwGvPyme5SqCQ5BbtvzAJ0Y9b36czAJxW7KeXyWfst6WyP4yxhOkuid0RSSL2bl-R53EgUmBPUwN1R78co7-us64ZLFtpXDECK9GufvI1geDMETcerkzET2pqBQ-Lsiy6L4fsTdTN42DYcn5L3-DHOiav-a3xCw71sOPET8h3FG-cz6sexJg2AqesBpWcSqqL7yQCrFdXwlu_XzBetfON50Lldt6MdD3VMy0qtm_40MpjSOyAt_mC0]--></g></svg>