<svg xmlns="http://www.w3.org/2000/svg" xmlns:xlink="http://www.w3.org/1999/xlink" contentStyleType="text/css" data-diagram-type="SEQUENCE" height="1582px" preserveAspectRatio="none" style="width:2625px;height:1582px;background:#FFFFFF;" version="1.1" viewBox="0 0 2625 1582" width="2625px" zoomAndPan="magnify"><title>T2 Standard &#8212; Provisioning IIQ -&gt; Orchestrateur -&gt; AD DS (OU d&#233;l&#233;gu&#233;es) -&gt; Entra ID (licence)</title><defs/><g><text fill="#000000" font-family="sans-serif" font-size="14" font-weight="bold" lengthAdjust="spacing" textLength="751.8438" x="933.0601" y="27.9951">T2 Standard &#8212; Provisioning IIQ -&gt; Orchestrateur -&gt; AD DS (OU d&#233;l&#233;gu&#233;es) -&gt; Entra ID (licence)</text><rect fill="#EEEEEE" height="1526.3672" style="stroke:#181818;stroke-width:0.5;" width="130.3062" x="11" y="43.2969"/><text fill="#000000" font-family="sans-serif" font-size="13" font-weight="bold" lengthAdjust="spacing" textLength="124.3062" x="14" y="55.3638">Tier-2 (Business)</text><rect fill="#D6EAF8" height="1526.3672" style="stroke:#181818;stroke-width:0.5;" width="658.7573" x="223.6973" y="43.2969"/><text fill="#000000" font-family="sans-serif" font-size="13" font-weight="bold" lengthAdjust="spacing" textLength="208.8569" x="448.6475" y="55.3638">Tier-1 (IAM &amp; Orchestration)</text><rect fill="#FDEDEC" height="1526.3672" style="stroke:#181818;stroke-width:0.5;" width="1379.8569" x="992.52" y="43.2969"/><text fill="#000000" font-family="sans-serif" font-size="13" font-weight="bold" lengthAdjust="spacing" textLength="155.2002" x="1604.8484" y="55.3638">Tier-0 (Identity Core)</text><g><title>HR System</title><rect fill="#000000" fill-opacity="0.00000" height="1347.0469" width="8" x="72.1531" y="141.0234"/><line style="stroke:#181818;stroke-width:0.5;stroke-dasharray:5,5;" x1="75.6975" x2="75.6975" y1="141.0234" y2="1488.0703"/></g><g><title>SailPoint IIQ</title><rect fill="#000000" fill-opacity="0.00000" height="1347.0469" width="8" x="310.3237" y="141.0234"/><line style="stroke:#181818;stroke-width:0.5;stroke-dasharray:5,5;" x1="313.6973" x2="313.6973" y1="141.0234" y2="1488.0703"/></g><g><title>Orchestrateur CI.CD</title><rect fill="#000000" fill-opacity="0.00000" height="1347.0469" width="8" x="753.9902" y="141.0234"/><line style="stroke:#181818;stroke-width:0.5;stroke-dasharray:5,5;" x1="757.5259" x2="757.5259" y1="141.0234" y2="1488.0703"/></g><g><title>CyberArk PVWA</title><rect fill="#000000" fill-opacity="0.00000" height="1347.0469" width="8" x="1074.0068" y="141.0234"/><line style="stroke:#181818;stroke-width:0.5;stroke-dasharray:5,5;" x1="1077.52" x2="1077.52" y1="141.0234" y2="1488.0703"/></g><g><title>AD DS PRD</title><rect fill="#000000" fill-opacity="0.00000" height="1347.0469" width="8" x="1281.6343" y="141.0234"/><line style="stroke:#181818;stroke-width:0.5;stroke-dasharray:5,5;" x1="1285.4937" x2="1285.4937" y1="141.0234" y2="1488.0703"/></g><g><title>AD DS DEV.TST</title><rect fill="#000000" fill-opacity="0.00000" height="1347.0469" width="8" x="1523.9155" y="141.0234"/><line style="stroke:#181818;stroke-width:0.5;stroke-dasharray:5,5;" x1="1527.7749" x2="1527.7749" y1="141.0234" y2="1488.0703"/></g><g><title>Entra Connect . Cloud Sync</title><rect fill="#000000" fill-opacity="0.00000" height="1347.0469" width="8" x="1796.3672" y="141.0234"/><line style="stroke:#181818;stroke-width:0.5;stroke-dasharray:5,5;" x1="1800.0562" x2="1800.0562" y1="141.0234" y2="1488.0703"/></g><g><title>Entra ID .Tenant.</title><rect fill="#000000" fill-opacity="0.00000" height="1347.0469" width="8" x="2218.7461" y="141.0234"/><line style="stroke:#181818;stroke-width:0.5;stroke-dasharray:5,5;" x1="2222.1152" x2="2222.1152" y1="141.0234" y2="1488.0703"/></g><g class="participant participant-head" data-participant="HR"><text fill="#000000" font-family="sans-serif" font-size="14" lengthAdjust="spacing" textLength="76.9111" x="34.6975" y="137.7217">HR System</text><ellipse cx="76.1531" cy="73.2266" fill="#E2E2F0" rx="8" ry="8" style="stroke:#181818;stroke-width:0.5;"/><path d="M76.1531,81.2266 L76.1531,108.2266 M63.1531,89.2266 L89.1531,89.2266 M76.1531,108.2266 L63.1531,123.2266 M76.1531,108.2266 L89.1531,123.2266" fill="none" style="stroke:#181818;stroke-width:0.5;"/></g><g class="participant participant-tail" data-participant="HR"><text fill="#000000" font-family="sans-serif" font-size="14" lengthAdjust="spacing" textLength="76.9111" x="34.6975" y="1500.0654">HR System</text><ellipse cx="76.1531" cy="1511.8672" fill="#E2E2F0" rx="8" ry="8" style="stroke:#181818;stroke-width:0.5;"/><path d="M76.1531,1519.8672 L76.1531,1546.8672 M63.1531,1527.8672 L89.1531,1527.8672 M76.1531,1546.8672 L63.1531,1561.8672 M76.1531,1546.8672 L89.1531,1561.8672" fill="none" style="stroke:#181818;stroke-width:0.5;"/></g><g class="participant participant-head" data-participant="IIQ"><rect fill="#E2E2F0" height="46.5938" rx="2.5" ry="2.5" style="stroke:#181818;stroke-width:0.5;" width="133.2529" x="247.6973" y="93.4297"/><text fill="#000000" font-family="sans-serif" font-size="14" lengthAdjust="spacing" textLength="84.2324" x="272.2075" y="113.4248">SailPoint IIQ</text><text fill="#000000" font-family="sans-serif" font-size="14" lengthAdjust="spacing" textLength="119.2529" x="254.6973" y="129.7217">(Source of Truth)</text></g><g class="participant participant-tail" data-participant="IIQ"><rect fill="#E2E2F0" height="46.5938" rx="2.5" ry="2.5" style="stroke:#181818;stroke-width:0.5;" width="133.2529" x="247.6973" y="1487.0703"/><text fill="#000000" font-family="sans-serif" font-size="14" lengthAdjust="spacing" textLength="84.2324" x="272.2075" y="1507.0654">SailPoint IIQ</text><text fill="#000000" font-family="sans-serif" font-size="14" lengthAdjust="spacing" textLength="119.2529" x="254.6973" y="1523.3623">(Source of Truth)</text></g><g class="participant participant-head" data-participant="ORCH"><rect fill="#E2E2F0" height="46.5938" rx="2.5" ry="2.5" style="stroke:#181818;stroke-width:0.5;" width="200.9287" x="657.5259" y="93.4297"/><text fill="#000000" font-family="sans-serif" font-size="14" lengthAdjust="spacing" textLength="141.4355" x="687.2725" y="113.4248">Orchestrateur CI/CD</text><text fill="#000000" font-family="sans-serif" font-size="14" lengthAdjust="spacing" textLength="186.9287" x="664.5259" y="129.7217">(GitHub Actions + Ansible)</text></g><g class="participant participant-tail" data-participant="ORCH"><rect fill="#E2E2F0" height="46.5938" rx="2.5" ry="2.5" style="stroke:#181818;stroke-width:0.5;" width="200.9287" x="657.5259" y="1487.0703"/><text fill="#000000" font-family="sans-serif" font-size="14" lengthAdjust="spacing" textLength="141.4355" x="687.2725" y="1507.0654">Orchestrateur CI/CD</text><text fill="#000000" font-family="sans-serif" font-size="14" lengthAdjust="spacing" textLength="186.9287" x="664.5259" y="1523.3623">(GitHub Actions + Ansible)</text></g><g class="participant participant-head" data-participant="PVWA"><text fill="#000000" font-family="sans-serif" font-size="14" lengthAdjust="spacing" textLength="110.6465" x="1019.6836" y="121.4248">CyberArk PVWA</text><text fill="#000000" font-family="sans-serif" font-size="14" lengthAdjust="spacing" textLength="156.9736" x="996.52" y="137.7217">(JIT cred d&#233;l&#233;gu&#233;s OU)</text><path d="M1060.0068,72.4297 C1060.0068,62.4297 1078.0068,62.4297 1078.0068,62.4297 C1078.0068,62.4297 1096.0068,62.4297 1096.0068,72.4297 L1096.0068,98.4297 C1096.0068,108.4297 1078.0068,108.4297 1078.0068,108.4297 C1078.0068,108.4297 1060.0068,108.4297 1060.0068,98.4297 L1060.0068,72.4297" fill="#E2E2F0" style="stroke:#181818;stroke-width:0.5;"/><path d="M1060.0068,72.4297 C1060.0068,82.4297 1078.0068,82.4297 1078.0068,82.4297 C1078.0068,82.4297 1096.0068,82.4297 1096.0068,72.4297" fill="none" style="stroke:#181818;stroke-width:0.5;"/></g><g class="participant participant-tail" data-participant="PVWA"><text fill="#000000" font-family="sans-serif" font-size="14" lengthAdjust="spacing" textLength="110.6465" x="1019.6836" y="1500.0654">CyberArk PVWA</text><text fill="#000000" font-family="sans-serif" font-size="14" lengthAdjust="spacing" textLength="156.9736" x="996.52" y="1516.3623">(JIT cred d&#233;l&#233;gu&#233;s OU)</text><path d="M1060.0068,1529.6641 C1060.0068,1519.6641 1078.0068,1519.6641 1078.0068,1519.6641 C1078.0068,1519.6641 1096.0068,1519.6641 1096.0068,1529.6641 L1096.0068,1555.6641 C1096.0068,1565.6641 1078.0068,1565.6641 1078.0068,1565.6641 C1078.0068,1565.6641 1060.0068,1565.6641 1060.0068,1555.6641 L1060.0068,1529.6641" fill="#E2E2F0" style="stroke:#181818;stroke-width:0.5;"/><path d="M1060.0068,1529.6641 C1060.0068,1539.6641 1078.0068,1539.6641 1078.0068,1539.6641 C1078.0068,1539.6641 1096.0068,1539.6641 1096.0068,1529.6641" fill="none" style="stroke:#181818;stroke-width:0.5;"/></g><g class="participant participant-head" data-participant="ADPRD"><rect fill="#E2E2F0" height="46.5938" rx="2.5" ry="2.5" style="stroke:#181818;stroke-width:0.5;" width="192.2813" x="1189.4937" y="93.4297"/><text fill="#000000" font-family="sans-serif" font-size="14" lengthAdjust="spacing" textLength="77.875" x="1246.6968" y="113.4248">AD DS PRD</text><text fill="#000000" font-family="sans-serif" font-size="14" lengthAdjust="spacing" textLength="178.2813" x="1196.4937" y="129.7217">(OU=T2, droits d&#233;l&#233;gu&#233;s)</text></g><g class="participant participant-tail" data-participant="ADPRD"><rect fill="#E2E2F0" height="46.5938" rx="2.5" ry="2.5" style="stroke:#181818;stroke-width:0.5;" width="192.2813" x="1189.4937" y="1487.0703"/><text fill="#000000" font-family="sans-serif" font-size="14" lengthAdjust="spacing" textLength="77.875" x="1246.6968" y="1507.0654">AD DS PRD</text><text fill="#000000" font-family="sans-serif" font-size="14" lengthAdjust="spacing" textLength="178.2813" x="1196.4937" y="1523.3623">(OU=T2, droits d&#233;l&#233;gu&#233;s)</text></g><g class="participant participant-head" data-participant="ADNPRD"><rect fill="#E2E2F0" height="46.5938" rx="2.5" ry="2.5" style="stroke:#181818;stroke-width:0.5;" width="192.2813" x="1431.7749" y="93.4297"/><text fill="#000000" font-family="sans-serif" font-size="14" lengthAdjust="spacing" textLength="108.835" x="1473.498" y="113.4248">AD DS DEV/TST</text><text fill="#000000" font-family="sans-serif" font-size="14" lengthAdjust="spacing" textLength="178.2813" x="1438.7749" y="129.7217">(OU=T2, droits d&#233;l&#233;gu&#233;s)</text></g><g class="participant participant-tail" data-participant="ADNPRD"><rect fill="#E2E2F0" height="46.5938" rx="2.5" ry="2.5" style="stroke:#181818;stroke-width:0.5;" width="192.2813" x="1431.7749" y="1487.0703"/><text fill="#000000" font-family="sans-serif" font-size="14" lengthAdjust="spacing" textLength="108.835" x="1473.498" y="1507.0654">AD DS DEV/TST</text><text fill="#000000" font-family="sans-serif" font-size="14" lengthAdjust="spacing" textLength="178.2813" x="1438.7749" y="1523.3623">(OU=T2, droits d&#233;l&#233;gu&#233;s)</text></g><g class="participant participant-head" data-participant="CONNECT"><rect fill="#E2E2F0" height="46.5938" rx="2.5" ry="2.5" style="stroke:#181818;stroke-width:0.5;" width="252.6221" x="1674.0562" y="93.4297"/><text fill="#000000" font-family="sans-serif" font-size="14" lengthAdjust="spacing" textLength="191.6797" x="1704.5273" y="113.4248">Entra Connect / Cloud Sync</text><text fill="#000000" font-family="sans-serif" font-size="14" lengthAdjust="spacing" textLength="238.6221" x="1681.0562" y="129.7217">(scoping strict, 1 for&#234;t autoritaire)</text></g><g class="participant participant-tail" data-participant="CONNECT"><rect fill="#E2E2F0" height="46.5938" rx="2.5" ry="2.5" style="stroke:#181818;stroke-width:0.5;" width="252.6221" x="1674.0562" y="1487.0703"/><text fill="#000000" font-family="sans-serif" font-size="14" lengthAdjust="spacing" textLength="191.6797" x="1704.5273" y="1507.0654">Entra Connect / Cloud Sync</text><text fill="#000000" font-family="sans-serif" font-size="14" lengthAdjust="spacing" textLength="238.6221" x="1681.0562" y="1523.3623">(scoping strict, 1 for&#234;t autoritaire)</text></g><g class="participant participant-head" data-participant="AAD"><rect fill="#E2E2F0" height="46.5938" rx="2.5" ry="2.5" style="stroke:#181818;stroke-width:0.5;" width="251.2617" x="2097.1152" y="93.4297"/><text fill="#000000" font-family="sans-serif" font-size="14" lengthAdjust="spacing" textLength="121.2559" x="2162.1182" y="113.4248">Entra ID (Tenant)</text><text fill="#000000" font-family="sans-serif" font-size="14" lengthAdjust="spacing" textLength="237.2617" x="2104.1152" y="129.7217">Objets licenci&#233;s = T2 uniquement</text></g><g class="participant participant-tail" data-participant="AAD"><rect fill="#E2E2F0" height="46.5938" rx="2.5" ry="2.5" style="stroke:#181818;stroke-width:0.5;" width="251.2617" x="2097.1152" y="1487.0703"/><text fill="#000000" font-family="sans-serif" font-size="14" lengthAdjust="spacing" textLength="121.2559" x="2162.1182" y="1507.0654">Entra ID (Tenant)</text><text fill="#000000" font-family="sans-serif" font-size="14" lengthAdjust="spacing" textLength="237.2617" x="2104.1152" y="1523.3623">Objets licenci&#233;s = T2 uniquement</text></g><rect fill="#EEEEEE" height="3" style="stroke:#EEEEEE;stroke-width:1;" width="2618.9639" x="0" y="171.5898"/><line style="stroke:#000000;stroke-width:1;" x1="0" x2="2618.9639" y1="171.5898" y2="171.5898"/><line style="stroke:#000000;stroke-width:1;" x1="0" x2="2618.9639" y1="174.5898" y2="174.5898"/><rect fill="#EEEEEE" height="23.1328" style="stroke:#000000;stroke-width:2;" width="142.9844" x="1237.9897" y="161.0234"/><text fill="#000000" font-family="sans-serif" font-size="13" font-weight="bold" lengthAdjust="spacing" textLength="124.4585" x="1243.9897" y="177.0903">Cr&#233;ation identit&#233;</text><g class="message" data-participant-1="HR" data-participant-2="IIQ"><polygon fill="#181818" points="302.3237,211.2891,312.3237,215.2891,302.3237,219.2891,306.3237,215.2891" style="stroke:#181818;stroke-width:1;"/><line style="stroke:#181818;stroke-width:1;" x1="76.1531" x2="308.3237" y1="215.2891" y2="215.2891"/><text fill="#000000" font-family="sans-serif" font-size="13" lengthAdjust="spacing" textLength="194.4731" x="83.1531" y="210.2231">Cr&#233;ation / M&#224;J profil (HR feed)</text></g><g class="message" data-participant-1="IIQ" data-participant-2="IIQ"><line style="stroke:#181818;stroke-width:1;" x1="314.3237" x2="356.3237" y1="244.4219" y2="244.4219"/><line style="stroke:#181818;stroke-width:1;" x1="356.3237" x2="356.3237" y1="244.4219" y2="257.4219"/><line style="stroke:#181818;stroke-width:1;" x1="315.3237" x2="356.3237" y1="257.4219" y2="257.4219"/><polygon fill="#181818" points="325.3237,253.4219,315.3237,257.4219,325.3237,261.4219,321.3237,257.4219" style="stroke:#181818;stroke-width:1;"/><text fill="#000000" font-family="sans-serif" font-size="13" lengthAdjust="spacing" textLength="429.6665" x="321.3237" y="239.356">Politique de provisioning (PRD obligatoire, DEV/TST selon r&#244;le/BU)</text></g><rect fill="#EEEEEE" height="3" style="stroke:#EEEEEE;stroke-width:1;" width="2618.9639" x="0" y="285.9883"/><line style="stroke:#000000;stroke-width:1;" x1="0" x2="2618.9639" y1="285.9883" y2="285.9883"/><line style="stroke:#000000;stroke-width:1;" x1="0" x2="2618.9639" y1="288.9883" y2="288.9883"/><rect fill="#EEEEEE" height="23.1328" style="stroke:#000000;stroke-width:2;" width="237.4565" x="1190.7537" y="275.4219"/><text fill="#000000" font-family="sans-serif" font-size="13" font-weight="bold" lengthAdjust="spacing" textLength="218.9307" x="1196.7537" y="291.4888">D&#233;clenchement orchestrateur</text><g class="message" data-participant-1="IIQ" data-participant-2="ORCH"><polygon fill="#181818" points="745.9902,325.6875,755.9902,329.6875,745.9902,333.6875,749.9902,329.6875" style="stroke:#181818;stroke-width:1;"/><line style="stroke:#181818;stroke-width:1;" x1="314.3237" x2="751.9902" y1="329.6875" y2="329.6875"/><text fill="#000000" font-family="sans-serif" font-size="13" lengthAdjust="spacing" textLength="326.3267" x="321.3237" y="324.6216">Webhook "Provision T2" (payload identit&#233; &amp; r&#244;les)</text></g><rect fill="#EEEEEE" height="3" style="stroke:#EEEEEE;stroke-width:1;" width="2618.9639" x="0" y="358.2539"/><line style="stroke:#000000;stroke-width:1;" x1="0" x2="2618.9639" y1="358.2539" y2="358.2539"/><line style="stroke:#000000;stroke-width:1;" x1="0" x2="2618.9639" y1="361.2539" y2="361.2539"/><rect fill="#EEEEEE" height="23.1328" style="stroke:#000000;stroke-width:2;" width="179.4771" x="1219.7434" y="347.6875"/><text fill="#000000" font-family="sans-serif" font-size="13" font-weight="bold" lengthAdjust="spacing" textLength="160.9512" x="1225.7434" y="363.7544">Secrets op&#233;rationnels</text><g class="message" data-participant-1="ORCH" data-participant-2="PVWA"><polygon fill="#181818" points="1066.0068,397.9531,1076.0068,401.9531,1066.0068,405.9531,1070.0068,401.9531" style="stroke:#181818;stroke-width:1;"/><line style="stroke:#181818;stroke-width:1;" x1="757.9902" x2="1072.0068" y1="401.9531" y2="401.9531"/><text fill="#000000" font-family="sans-serif" font-size="13" lengthAdjust="spacing" textLength="296.0166" x="764.9902" y="396.8872">Demande JIT credential (compte d&#233;l&#233;gu&#233; OU)</text></g><g class="message" data-participant-1="PVWA" data-participant-2="ORCH"><polygon fill="#181818" points="768.9902,427.0859,758.9902,431.0859,768.9902,435.0859,764.9902,431.0859" style="stroke:#181818;stroke-width:1;"/><line style="stroke:#181818;stroke-width:1;stroke-dasharray:2,2;" x1="762.9902" x2="1077.0068" y1="431.0859" y2="431.0859"/><text fill="#000000" font-family="sans-serif" font-size="13" lengthAdjust="spacing" textLength="256.4136" x="774.9902" y="426.02">JIT token / session (time-bound, trac&#233;e)</text></g><rect fill="#EEEEEE" height="3" style="stroke:#EEEEEE;stroke-width:1;" width="2618.9639" x="0" y="459.6523"/><line style="stroke:#000000;stroke-width:1;" x1="0" x2="2618.9639" y1="459.6523" y2="459.6523"/><line style="stroke:#000000;stroke-width:1;" x1="0" x2="2618.9639" y1="462.6523" y2="462.6523"/><rect fill="#EEEEEE" height="23.1328" style="stroke:#000000;stroke-width:2;" width="130.4351" x="1244.2644" y="449.0859"/><text fill="#000000" font-family="sans-serif" font-size="13" font-weight="bold" lengthAdjust="spacing" textLength="111.9092" x="1250.2644" y="465.1528">Comptes AD T2</text><g class="message" data-participant-1="ORCH" data-participant-2="ADPRD"><polygon fill="#181818" points="1273.6343,499.3516,1283.6343,503.3516,1273.6343,507.3516,1277.6343,503.3516" style="stroke:#181818;stroke-width:1;"/><line style="stroke:#181818;stroke-width:1;" x1="757.9902" x2="1279.6343" y1="503.3516" y2="503.3516"/><text fill="#000000" font-family="sans-serif" font-size="13" lengthAdjust="spacing" textLength="352.2251" x="764.9902" y="498.2856">New-ADUser T2 + attributs + groupes AGDLP de base</text></g><g class="message" data-participant-1="ORCH" data-participant-2="ADNPRD"><polygon fill="#181818" points="1515.9155,528.4844,1525.9155,532.4844,1515.9155,536.4844,1519.9155,532.4844" style="stroke:#181818;stroke-width:1;"/><line style="stroke:#181818;stroke-width:1;" x1="757.9902" x2="1521.9155" y1="532.4844" y2="532.4844"/><text fill="#000000" font-family="sans-serif" font-size="13" lengthAdjust="spacing" textLength="317.1035" x="764.9902" y="527.4185">(option) New-ADUser T2 DEV/TST + groupes env</text></g><g class="message" data-participant-1="ORCH" data-participant-2="PVWA"><polygon fill="#181818" points="1066.0068,557.6172,1076.0068,561.6172,1066.0068,565.6172,1070.0068,561.6172" style="stroke:#181818;stroke-width:1;"/><line style="stroke:#181818;stroke-width:1;" x1="757.9902" x2="1072.0068" y1="561.6172" y2="561.6172"/><text fill="#000000" font-family="sans-serif" font-size="13" lengthAdjust="spacing" textLength="180.0576" x="764.9902" y="556.5513">Check-in + rotation post-op</text></g><rect fill="#EEEEEE" height="3" style="stroke:#EEEEEE;stroke-width:1;" width="2618.9639" x="0" y="590.1836"/><line style="stroke:#000000;stroke-width:1;" x1="0" x2="2618.9639" y1="590.1836" y2="590.1836"/><line style="stroke:#000000;stroke-width:1;" x1="0" x2="2618.9639" y1="593.1836" y2="593.1836"/><rect fill="#EEEEEE" height="23.1328" style="stroke:#000000;stroke-width:2;" width="133.3486" x="1242.8076" y="579.6172"/><text fill="#000000" font-family="sans-serif" font-size="13" font-weight="bold" lengthAdjust="spacing" textLength="114.8228" x="1248.8076" y="595.6841">Sync vers Entra</text><g class="message" data-participant-1="ADPRD" data-participant-2="CONNECT"><polygon fill="#181818" points="1788.3672,629.8828,1798.3672,633.8828,1788.3672,637.8828,1792.3672,633.8828" style="stroke:#181818;stroke-width:1;"/><line style="stroke:#181818;stroke-width:1;" x1="1285.6343" x2="1794.3672" y1="633.8828" y2="633.8828"/><text fill="#000000" font-family="sans-serif" font-size="13" lengthAdjust="spacing" textLength="222.7012" x="1292.6343" y="628.8169">Delta export (for&#234;t source unique)</text></g><g class="message" data-participant-1="CONNECT" data-participant-2="AAD"><polygon fill="#181818" points="2210.7461,659.0156,2220.7461,663.0156,2210.7461,667.0156,2214.7461,663.0156" style="stroke:#181818;stroke-width:1;"/><line style="stroke:#181818;stroke-width:1;" x1="1800.3672" x2="2216.7461" y1="663.0156" y2="663.0156"/><text fill="#000000" font-family="sans-serif" font-size="13" lengthAdjust="spacing" textLength="398.3789" x="1807.3672" y="657.9497">Provision / Update (mS-DS-ConsistencyGuid -&gt; ImmutableID)</text></g><g class="message" data-participant-1="IIQ" data-participant-2="AAD"><polygon fill="#181818" points="2210.7461,688.1484,2220.7461,692.1484,2210.7461,696.1484,2214.7461,692.1484" style="stroke:#181818;stroke-width:1;"/><line style="stroke:#181818;stroke-width:1;" x1="314.3237" x2="2216.7461" y1="692.1484" y2="692.1484"/><text fill="#000000" font-family="sans-serif" font-size="13" lengthAdjust="spacing" textLength="323.3496" x="321.3237" y="687.0825">SCIM/Graph &#8212; extensionAttributes, m&#233;tadonn&#233;es</text></g><g class="message" data-participant-1="AAD" data-participant-2="AAD"><line style="stroke:#181818;stroke-width:1;" x1="2222.7461" x2="2264.7461" y1="721.2813" y2="721.2813"/><line style="stroke:#181818;stroke-width:1;" x1="2264.7461" x2="2264.7461" y1="721.2813" y2="734.2813"/><line style="stroke:#181818;stroke-width:1;" x1="2223.7461" x2="2264.7461" y1="734.2813" y2="734.2813"/><polygon fill="#181818" points="2233.7461,730.2813,2223.7461,734.2813,2233.7461,738.2813,2229.7461,734.2813" style="stroke:#181818;stroke-width:1;"/><text fill="#000000" font-family="sans-serif" font-size="13" lengthAdjust="spacing" textLength="69.437" x="2229.7461" y="716.2153">Attribution</text><text fill="#000000" font-family="sans-serif" font-size="13" font-weight="bold" lengthAdjust="spacing" textLength="51.2129" x="2303.3154" y="716.2153">licence</text><text fill="#000000" font-family="sans-serif" font-size="13" lengthAdjust="spacing" textLength="253.3032" x="2358.6606" y="716.2153">(unique) au compte T2 (standard user)</text></g><rect fill="#EEEEEE" height="3" style="stroke:#EEEEEE;stroke-width:1;" width="2618.9639" x="0" y="762.8477"/><line style="stroke:#000000;stroke-width:1;" x1="0" x2="2618.9639" y1="762.8477" y2="762.8477"/><line style="stroke:#000000;stroke-width:1;" x1="0" x2="2618.9639" y1="765.8477" y2="765.8477"/><rect fill="#EEEEEE" height="23.1328" style="stroke:#000000;stroke-width:2;" width="80.0029" x="1269.4805" y="752.2813"/><text fill="#000000" font-family="sans-serif" font-size="13" font-weight="bold" lengthAdjust="spacing" textLength="61.4771" x="1275.4805" y="768.3481">R&#233;sultat</text><g class="message" data-participant-1="ORCH" data-participant-2="IIQ"><polygon fill="#181818" points="325.3237,802.5469,315.3237,806.5469,325.3237,810.5469,321.3237,806.5469" style="stroke:#181818;stroke-width:1;"/><line style="stroke:#181818;stroke-width:1;" x1="319.3237" x2="756.9902" y1="806.5469" y2="806.5469"/><text fill="#000000" font-family="sans-serif" font-size="13" lengthAdjust="spacing" textLength="198.3071" x="331.3237" y="801.481">IDs objets + journaux + statut</text></g><rect fill="#EEEEEE" height="3" style="stroke:#EEEEEE;stroke-width:1;" width="2618.9639" x="0" y="835.1133"/><line style="stroke:#000000;stroke-width:1;" x1="0" x2="2618.9639" y1="835.1133" y2="835.1133"/><line style="stroke:#000000;stroke-width:1;" x1="0" x2="2618.9639" y1="838.1133" y2="838.1133"/><rect fill="#EEEEEE" height="23.1328" style="stroke:#000000;stroke-width:2;" width="142.9844" x="1237.9897" y="824.5469"/><text fill="#000000" font-family="sans-serif" font-size="13" font-weight="bold" lengthAdjust="spacing" textLength="124.4585" x="1243.9897" y="840.6138">Cr&#233;ation identit&#233;</text><g class="message" data-participant-1="HR" data-participant-2="IIQ"><polygon fill="#181818" points="302.3237,874.8125,312.3237,878.8125,302.3237,882.8125,306.3237,878.8125" style="stroke:#181818;stroke-width:1;"/><line style="stroke:#181818;stroke-width:1;" x1="76.1531" x2="308.3237" y1="878.8125" y2="878.8125"/><text fill="#000000" font-family="sans-serif" font-size="13" lengthAdjust="spacing" textLength="194.4731" x="83.1531" y="873.7466">Cr&#233;ation / M&#224;J profil (HR feed)</text></g><g class="message" data-participant-1="IIQ" data-participant-2="IIQ"><line style="stroke:#181818;stroke-width:1;" x1="314.3237" x2="356.3237" y1="907.9453" y2="907.9453"/><line style="stroke:#181818;stroke-width:1;" x1="356.3237" x2="356.3237" y1="907.9453" y2="920.9453"/><line style="stroke:#181818;stroke-width:1;" x1="315.3237" x2="356.3237" y1="920.9453" y2="920.9453"/><polygon fill="#181818" points="325.3237,916.9453,315.3237,920.9453,325.3237,924.9453,321.3237,920.9453" style="stroke:#181818;stroke-width:1;"/><text fill="#000000" font-family="sans-serif" font-size="13" lengthAdjust="spacing" textLength="429.6665" x="321.3237" y="902.8794">Politique de provisioning (PRD obligatoire, DEV/TST selon r&#244;le/BU)</text></g><rect fill="#EEEEEE" height="3" style="stroke:#EEEEEE;stroke-width:1;" width="2618.9639" x="0" y="949.5117"/><line style="stroke:#000000;stroke-width:1;" x1="0" x2="2618.9639" y1="949.5117" y2="949.5117"/><line style="stroke:#000000;stroke-width:1;" x1="0" x2="2618.9639" y1="952.5117" y2="952.5117"/><rect fill="#EEEEEE" height="23.1328" style="stroke:#000000;stroke-width:2;" width="237.4565" x="1190.7537" y="938.9453"/><text fill="#000000" font-family="sans-serif" font-size="13" font-weight="bold" lengthAdjust="spacing" textLength="218.9307" x="1196.7537" y="955.0122">D&#233;clenchement orchestrateur</text><g class="message" data-participant-1="IIQ" data-participant-2="ORCH"><polygon fill="#181818" points="745.9902,989.2109,755.9902,993.2109,745.9902,997.2109,749.9902,993.2109" style="stroke:#181818;stroke-width:1;"/><line style="stroke:#181818;stroke-width:1;" x1="314.3237" x2="751.9902" y1="993.2109" y2="993.2109"/><text fill="#000000" font-family="sans-serif" font-size="13" lengthAdjust="spacing" textLength="326.3267" x="321.3237" y="988.145">Webhook "Provision T2" (payload identit&#233; &amp; r&#244;les)</text></g><rect fill="#EEEEEE" height="3" style="stroke:#EEEEEE;stroke-width:1;" width="2618.9639" x="0" y="1021.7773"/><line style="stroke:#000000;stroke-width:1;" x1="0" x2="2618.9639" y1="1021.7773" y2="1021.7773"/><line style="stroke:#000000;stroke-width:1;" x1="0" x2="2618.9639" y1="1024.7773" y2="1024.7773"/><rect fill="#EEEEEE" height="23.1328" style="stroke:#000000;stroke-width:2;" width="179.4771" x="1219.7434" y="1011.2109"/><text fill="#000000" font-family="sans-serif" font-size="13" font-weight="bold" lengthAdjust="spacing" textLength="160.9512" x="1225.7434" y="1027.2778">Secrets op&#233;rationnels</text><g class="message" data-participant-1="ORCH" data-participant-2="PVWA"><polygon fill="#181818" points="1066.0068,1061.4766,1076.0068,1065.4766,1066.0068,1069.4766,1070.0068,1065.4766" style="stroke:#181818;stroke-width:1;"/><line style="stroke:#181818;stroke-width:1;" x1="757.9902" x2="1072.0068" y1="1065.4766" y2="1065.4766"/><text fill="#000000" font-family="sans-serif" font-size="13" lengthAdjust="spacing" textLength="296.0166" x="764.9902" y="1060.4106">Demande JIT credential (compte d&#233;l&#233;gu&#233; OU)</text></g><g class="message" data-participant-1="PVWA" data-participant-2="ORCH"><polygon fill="#181818" points="768.9902,1090.6094,758.9902,1094.6094,768.9902,1098.6094,764.9902,1094.6094" style="stroke:#181818;stroke-width:1;"/><line style="stroke:#181818;stroke-width:1;stroke-dasharray:2,2;" x1="762.9902" x2="1077.0068" y1="1094.6094" y2="1094.6094"/><text fill="#000000" font-family="sans-serif" font-size="13" lengthAdjust="spacing" textLength="256.4136" x="774.9902" y="1089.5435">JIT token / session (time-bound, trac&#233;e)</text></g><rect fill="#EEEEEE" height="3" style="stroke:#EEEEEE;stroke-width:1;" width="2618.9639" x="0" y="1123.1758"/><line style="stroke:#000000;stroke-width:1;" x1="0" x2="2618.9639" y1="1123.1758" y2="1123.1758"/><line style="stroke:#000000;stroke-width:1;" x1="0" x2="2618.9639" y1="1126.1758" y2="1126.1758"/><rect fill="#EEEEEE" height="23.1328" style="stroke:#000000;stroke-width:2;" width="130.4351" x="1244.2644" y="1112.6094"/><text fill="#000000" font-family="sans-serif" font-size="13" font-weight="bold" lengthAdjust="spacing" textLength="111.9092" x="1250.2644" y="1128.6763">Comptes AD T2</text><g class="message" data-participant-1="ORCH" data-participant-2="ADPRD"><polygon fill="#181818" points="1273.6343,1162.875,1283.6343,1166.875,1273.6343,1170.875,1277.6343,1166.875" style="stroke:#181818;stroke-width:1;"/><line style="stroke:#181818;stroke-width:1;" x1="757.9902" x2="1279.6343" y1="1166.875" y2="1166.875"/><text fill="#000000" font-family="sans-serif" font-size="13" lengthAdjust="spacing" textLength="352.2251" x="764.9902" y="1161.8091">New-ADUser T2 + attributs + groupes AGDLP de base</text></g><g class="message" data-participant-1="ORCH" data-participant-2="ADNPRD"><polygon fill="#181818" points="1515.9155,1192.0078,1525.9155,1196.0078,1515.9155,1200.0078,1519.9155,1196.0078" style="stroke:#181818;stroke-width:1;"/><line style="stroke:#181818;stroke-width:1;" x1="757.9902" x2="1521.9155" y1="1196.0078" y2="1196.0078"/><text fill="#000000" font-family="sans-serif" font-size="13" lengthAdjust="spacing" textLength="317.1035" x="764.9902" y="1190.9419">(option) New-ADUser T2 DEV/TST + groupes env</text></g><g class="message" data-participant-1="ORCH" data-participant-2="PVWA"><polygon fill="#181818" points="1066.0068,1221.1406,1076.0068,1225.1406,1066.0068,1229.1406,1070.0068,1225.1406" style="stroke:#181818;stroke-width:1;"/><line style="stroke:#181818;stroke-width:1;" x1="757.9902" x2="1072.0068" y1="1225.1406" y2="1225.1406"/><text fill="#000000" font-family="sans-serif" font-size="13" lengthAdjust="spacing" textLength="180.0576" x="764.9902" y="1220.0747">Check-in + rotation post-op</text></g><rect fill="#EEEEEE" height="3" style="stroke:#EEEEEE;stroke-width:1;" width="2618.9639" x="0" y="1253.707"/><line style="stroke:#000000;stroke-width:1;" x1="0" x2="2618.9639" y1="1253.707" y2="1253.707"/><line style="stroke:#000000;stroke-width:1;" x1="0" x2="2618.9639" y1="1256.707" y2="1256.707"/><rect fill="#EEEEEE" height="23.1328" style="stroke:#000000;stroke-width:2;" width="133.3486" x="1242.8076" y="1243.1406"/><text fill="#000000" font-family="sans-serif" font-size="13" font-weight="bold" lengthAdjust="spacing" textLength="114.8228" x="1248.8076" y="1259.2075">Sync vers Entra</text><g class="message" data-participant-1="ADPRD" data-participant-2="CONNECT"><polygon fill="#181818" points="1788.3672,1293.4063,1798.3672,1297.4063,1788.3672,1301.4063,1792.3672,1297.4063" style="stroke:#181818;stroke-width:1;"/><line style="stroke:#181818;stroke-width:1;" x1="1285.6343" x2="1794.3672" y1="1297.4063" y2="1297.4063"/><text fill="#000000" font-family="sans-serif" font-size="13" lengthAdjust="spacing" textLength="222.7012" x="1292.6343" y="1292.3403">Delta export (for&#234;t source unique)</text></g><g class="message" data-participant-1="CONNECT" data-participant-2="AAD"><polygon fill="#181818" points="2210.7461,1322.5391,2220.7461,1326.5391,2210.7461,1330.5391,2214.7461,1326.5391" style="stroke:#181818;stroke-width:1;"/><line style="stroke:#181818;stroke-width:1;" x1="1800.3672" x2="2216.7461" y1="1326.5391" y2="1326.5391"/><text fill="#000000" font-family="sans-serif" font-size="13" lengthAdjust="spacing" textLength="398.3789" x="1807.3672" y="1321.4731">Provision / Update (mS-DS-ConsistencyGuid -&gt; ImmutableID)</text></g><g class="message" data-participant-1="IIQ" data-participant-2="AAD"><polygon fill="#181818" points="2210.7461,1351.6719,2220.7461,1355.6719,2210.7461,1359.6719,2214.7461,1355.6719" style="stroke:#181818;stroke-width:1;"/><line style="stroke:#181818;stroke-width:1;" x1="314.3237" x2="2216.7461" y1="1355.6719" y2="1355.6719"/><text fill="#000000" font-family="sans-serif" font-size="13" lengthAdjust="spacing" textLength="323.3496" x="321.3237" y="1350.606">SCIM/Graph &#8212; extensionAttributes, m&#233;tadonn&#233;es</text></g><g class="message" data-participant-1="AAD" data-participant-2="AAD"><line style="stroke:#181818;stroke-width:1;" x1="2222.7461" x2="2264.7461" y1="1384.8047" y2="1384.8047"/><line style="stroke:#181818;stroke-width:1;" x1="2264.7461" x2="2264.7461" y1="1384.8047" y2="1397.8047"/><line style="stroke:#181818;stroke-width:1;" x1="2223.7461" x2="2264.7461" y1="1397.8047" y2="1397.8047"/><polygon fill="#181818" points="2233.7461,1393.8047,2223.7461,1397.8047,2233.7461,1401.8047,2229.7461,1397.8047" style="stroke:#181818;stroke-width:1;"/><text fill="#000000" font-family="sans-serif" font-size="13" lengthAdjust="spacing" textLength="69.437" x="2229.7461" y="1379.7388">Attribution</text><text fill="#000000" font-family="sans-serif" font-size="13" font-weight="bold" lengthAdjust="spacing" textLength="51.2129" x="2303.3154" y="1379.7388">licence</text><text fill="#000000" font-family="sans-serif" font-size="13" lengthAdjust="spacing" textLength="253.3032" x="2358.6606" y="1379.7388">(unique) au compte T2 (standard user)</text></g><rect fill="#EEEEEE" height="3" style="stroke:#EEEEEE;stroke-width:1;" width="2618.9639" x="0" y="1426.3711"/><line style="stroke:#000000;stroke-width:1;" x1="0" x2="2618.9639" y1="1426.3711" y2="1426.3711"/><line style="stroke:#000000;stroke-width:1;" x1="0" x2="2618.9639" y1="1429.3711" y2="1429.3711"/><rect fill="#EEEEEE" height="23.1328" style="stroke:#000000;stroke-width:2;" width="80.0029" x="1269.4805" y="1415.8047"/><text fill="#000000" font-family="sans-serif" font-size="13" font-weight="bold" lengthAdjust="spacing" textLength="61.4771" x="1275.4805" y="1431.8716">R&#233;sultat</text><g class="message" data-participant-1="ORCH" data-participant-2="IIQ"><polygon fill="#181818" points="325.3237,1466.0703,315.3237,1470.0703,325.3237,1474.0703,321.3237,1470.0703" style="stroke:#181818;stroke-width:1;"/><line style="stroke:#181818;stroke-width:1;" x1="319.3237" x2="756.9902" y1="1470.0703" y2="1470.0703"/><text fill="#000000" font-family="sans-serif" font-size="13" lengthAdjust="spacing" textLength="198.3071" x="331.3237" y="1465.0044">IDs objets + journaux + statut</text></g><!--SRC=[xLLBRkD64Dtp50KDCA1i2RAz20O6580cDRO6iQI8qincDasoRFMOx6RwuqYx7287cAsopWruavmarIHbSGmliWwabS2kUlNwrQikmqsEiBg2s32HCPN1Ft_y2GibdxdcKd3n2DFfhp3y6UOgtQ0sYXcqodq88eXYyEThoAfzNkqVRRL7tNT74q5nC8t0ptcA8iM-v-adBagcM04BfWnFUSc4MR0iSpMkBZhdDt9x-7vvuNc9t49lnL4Dhy2_iPeBrBhVWtUJ-kS1iDH81Rsx9SGxRR3e0TDmj_HGP43PNOXByAV1FRplN8UkwT2YdoR1nm-4LXxfGIzcF5z8Jdz9Xg_2ZwLLAO9yW9MoPjElIz7HwxmVrGgdep2Yx5jkxcm2GUgAQZY7G6YUvDZ0p9VXtLkSBuXpXi9miuDGAXVzxcCqYIOXLSsOOGdJ2Brmbw0Ar1CiFdy9gDYdwGfIXLcdFLHZtTHoCQyvDmrTB1tJ-NgykXf0fYGtkelGf0SHXRsT7qq-ZrRnwhzWpDu0QQmJIY4mDJ22C9SsexwAb11rAajd2nAMfsO0b_0WLVMN0MR90Tmmhbejm_biDWbNRwCxOwvGq9V-Lp5FlY7HQupAdKPZDmzMyDyi5YHxGpQ8ZgqPZo5KrRws3l2cDTKUncEFB4Zs9pzSTo96S5zz_mIbaWyy1vzY7X2pljSELXsza3athY9aw2AFu-UJI22Jd3yo8-b-WuF2e34dT5NzdUFePjslUKNLFitf8fkQEiWVR4W43yDCLhk6BvXif7o2tikyqyrxu9TibqkMTQxslYcZco8nagz8CrbM-sQ01ERQmJjSX-_iTGqH5lIe81oSwD0OAP3AeZJOSOIpfUToOFX2pYKP-OHEFqqJxzZvXXSuJAGLsG3eLYczE0sbi8PqfdBDwp2fdNeDC_nz64HhZSgTdmCpPA746ZU4ZqhQqkNUHhyidFvkdZe0inh1bsNzLBo2EZJZ28FY-PKEuGRJfo4N5AIaQKnHIcs6icpq97V3CohTFfn4lwRj45eZEp5pmm2tfLG6_DRtkdcE6hFslJQufXqGvsDVHx0kwQb0y8ju6CL36Z3DwQqKwUxMygpsOL5OUajod4OltgnHud1wFxfLhDpKom6tbEP0WrP3r0CeghrX6Hd1xG2Fqbwo3r6EnTbPkm_Epi1lITFiGci8ajFNXpraIU2cjqiQIakNDzs-rbCpZSY4pVoUmpVIGZ2xfRy4OgpnF7FQRgVjTjfkf-rsscwdxVO_ssx_0W00]--></g></svg>