<svg xmlns="http://www.w3.org/2000/svg" xmlns:xlink="http://www.w3.org/1999/xlink" contentStyleType="text/css" data-diagram-type="SEQUENCE" height="1099px" preserveAspectRatio="none" style="width:2523px;height:1099px;background:#FFFFFF;" version="1.1" viewBox="0 0 2523 1099" width="2523px" zoomAndPan="magnify"><title>T0 Admin &#8212; Demande d'acc&#232;s JIT maximal (IIQ -&gt; Orchestrateur -&gt; PVWA/PSM -&gt; JEA T0 -&gt; AD T0)</title><defs/><g><text fill="#000000" font-family="sans-serif" font-size="14" font-weight="bold" lengthAdjust="spacing" textLength="775.5303" x="869.9358" y="27.9951">T0 Admin &#8212; Demande d'acc&#232;s JIT maximal (IIQ -&gt; Orchestrateur -&gt; PVWA/PSM -&gt; JEA T0 -&gt; AD T0)</text><rect fill="#D6EAF8" height="1043.4453" style="stroke:#181818;stroke-width:0.5;" width="547.7944" x="11" y="43.2969"/><text fill="#000000" font-family="sans-serif" font-size="13" font-weight="bold" lengthAdjust="spacing" textLength="208.8569" x="180.4688" y="55.3638">Tier-1 (IAM &amp; Orchestration)</text><rect fill="#FDEDEC" height="1043.4453" style="stroke:#181818;stroke-width:0.5;" width="1062.1934" x="786.2515" y="43.2969"/><text fill="#000000" font-family="sans-serif" font-size="13" font-weight="bold" lengthAdjust="spacing" textLength="230.7437" x="1201.9763" y="55.3638">Tier-0 (Bastion d'identit&#233; &amp; DC)</text><rect fill="#E8DAEF" height="1043.4453" style="stroke:#181818;stroke-width:0.5;" width="634.957" x="1870.4448" y="43.2969"/><text fill="#000000" font-family="sans-serif" font-size="13" font-weight="bold" lengthAdjust="spacing" textLength="131.9106" x="2121.968" y="55.3638">Poste &amp; Contr&#244;les</text><g><title>SailPoint IIQ</title><rect fill="#000000" fill-opacity="0.00000" height="725.9219" width="8" x="107.6411" y="141.0234"/><line style="stroke:#181818;stroke-width:0.5;stroke-dasharray:5.0,5.0;" x1="111" x2="111" y1="141.0234" y2="866.9453"/></g><line style="stroke:#181818;stroke-width:1;stroke-dasharray:1.0,4.0;" x1="111" x2="111" y1="866.9453" y2="907.75"/><g><title>SailPoint IIQ</title><rect fill="#000000" fill-opacity="0.00000" height="97.3984" width="8" x="107.6411" y="907.75"/><line style="stroke:#181818;stroke-width:0.5;stroke-dasharray:5.0,5.0;" x1="111" x2="111" y1="907.75" y2="1005.1484"/></g><g><title>Orchestrateur CI/CD</title><rect fill="#000000" fill-opacity="0.00000" height="725.9219" width="8" x="430.3301" y="141.0234"/><line style="stroke:#181818;stroke-width:0.5;stroke-dasharray:5.0,5.0;" x1="433.8657" x2="433.8657" y1="141.0234" y2="866.9453"/></g><line style="stroke:#181818;stroke-width:1;stroke-dasharray:1.0,4.0;" x1="433.8657" x2="433.8657" y1="866.9453" y2="907.75"/><g><title>Orchestrateur CI/CD</title><rect fill="#000000" fill-opacity="0.00000" height="97.3984" width="8" x="430.3301" y="907.75"/><line style="stroke:#181818;stroke-width:0.5;stroke-dasharray:5.0,5.0;" x1="433.8657" x2="433.8657" y1="907.75" y2="1005.1484"/></g><g><title>CyberArk PVWA</title><rect fill="#000000" fill-opacity="0.00000" height="725.9219" width="8" x="885.5391" y="141.0234"/><line style="stroke:#181818;stroke-width:0.5;stroke-dasharray:5.0,5.0;" x1="889.2515" x2="889.2515" y1="141.0234" y2="866.9453"/></g><line style="stroke:#181818;stroke-width:1;stroke-dasharray:1.0,4.0;" x1="889.2515" x2="889.2515" y1="866.9453" y2="907.75"/><g><title>CyberArk PVWA</title><rect fill="#000000" fill-opacity="0.00000" height="97.3984" width="8" x="885.5391" y="907.75"/><line style="stroke:#181818;stroke-width:0.5;stroke-dasharray:5.0,5.0;" x1="889.2515" x2="889.2515" y1="907.75" y2="1005.1484"/></g><g><title>CyberArk PSM/PSMP</title><rect fill="#000000" fill-opacity="0.00000" height="725.9219" width="8" x="1107.5161" y="141.0234"/><line style="stroke:#181818;stroke-width:0.5;stroke-dasharray:5.0,5.0;" x1="1110.9248" x2="1110.9248" y1="141.0234" y2="866.9453"/></g><line style="stroke:#181818;stroke-width:1;stroke-dasharray:1.0,4.0;" x1="1110.9248" x2="1110.9248" y1="866.9453" y2="907.75"/><g><title>CyberArk PSM/PSMP</title><rect fill="#000000" fill-opacity="0.00000" height="97.3984" width="8" x="1107.5161" y="907.75"/><line style="stroke:#181818;stroke-width:0.5;stroke-dasharray:5.0,5.0;" x1="1110.9248" x2="1110.9248" y1="907.75" y2="1005.1484"/></g><g><title>Host de gestion T0</title><rect fill="#000000" fill-opacity="0.00000" height="725.9219" width="8" x="1432.8521" y="141.0234"/><line style="stroke:#181818;stroke-width:0.5;stroke-dasharray:5.0,5.0;" x1="1436.6216" x2="1436.6216" y1="141.0234" y2="866.9453"/></g><line style="stroke:#181818;stroke-width:1;stroke-dasharray:1.0,4.0;" x1="1436.6216" x2="1436.6216" y1="866.9453" y2="907.75"/><g><title>Host de gestion T0</title><rect fill="#000000" fill-opacity="0.00000" height="97.3984" width="8" x="1432.8521" y="907.75"/><line style="stroke:#181818;stroke-width:0.5;stroke-dasharray:5.0,5.0;" x1="1436.6216" x2="1436.6216" y1="907.75" y2="1005.1484"/></g><g><title>AD DS (T0 scope)</title><rect fill="#000000" fill-opacity="0.00000" height="725.9219" width="8" x="1722.2637" y="141.0234"/><line style="stroke:#181818;stroke-width:0.5;stroke-dasharray:5.0,5.0;" x1="1726.0825" x2="1726.0825" y1="141.0234" y2="866.9453"/></g><line style="stroke:#181818;stroke-width:1;stroke-dasharray:1.0,4.0;" x1="1726.0825" x2="1726.0825" y1="866.9453" y2="907.75"/><g><title>AD DS (T0 scope)</title><rect fill="#000000" fill-opacity="0.00000" height="97.3984" width="8" x="1722.2637" y="907.75"/><line style="stroke:#181818;stroke-width:0.5;stroke-dasharray:5.0,5.0;" x1="1726.0825" x2="1726.0825" y1="907.75" y2="1005.1484"/></g><g><title>Approver S&#233;curit&#233; (2e pair)</title><rect fill="#000000" fill-opacity="0.00000" height="725.9219" width="8" x="1968.9702" y="141.0234"/><line style="stroke:#181818;stroke-width:0.5;stroke-dasharray:5.0,5.0;" x1="1972.4448" x2="1972.4448" y1="141.0234" y2="866.9453"/></g><line style="stroke:#181818;stroke-width:1;stroke-dasharray:1.0,4.0;" x1="1972.4448" x2="1972.4448" y1="866.9453" y2="907.75"/><g><title>Approver S&#233;curit&#233; (2e pair)</title><rect fill="#000000" fill-opacity="0.00000" height="97.3984" width="8" x="1968.9702" y="907.75"/><line style="stroke:#181818;stroke-width:0.5;stroke-dasharray:5.0,5.0;" x1="1972.4448" x2="1972.4448" y1="907.75" y2="1005.1484"/></g><g><title>Approver S&#233;cu/IT</title><rect fill="#000000" fill-opacity="0.00000" height="725.9219" width="8" x="2140.6177" y="141.0234"/><line style="stroke:#181818;stroke-width:0.5;stroke-dasharray:5.0,5.0;" x1="2144.4956" x2="2144.4956" y1="141.0234" y2="866.9453"/></g><line style="stroke:#181818;stroke-width:1;stroke-dasharray:1.0,4.0;" x1="2144.4956" x2="2144.4956" y1="866.9453" y2="907.75"/><g><title>Approver S&#233;cu/IT</title><rect fill="#000000" fill-opacity="0.00000" height="97.3984" width="8" x="2140.6177" y="907.75"/><line style="stroke:#181818;stroke-width:0.5;stroke-dasharray:5.0,5.0;" x1="2144.4956" x2="2144.4956" y1="907.75" y2="1005.1484"/></g><g><title>Admin humain (identit&#233; T2) sur PAW T0</title><rect fill="#000000" fill-opacity="0.00000" height="725.9219" width="8" x="2355.5708" y="141.0234"/><line style="stroke:#181818;stroke-width:0.5;stroke-dasharray:5.0,5.0;" x1="2358.7397" x2="2358.7397" y1="141.0234" y2="866.9453"/></g><line style="stroke:#181818;stroke-width:1;stroke-dasharray:1.0,4.0;" x1="2358.7397" x2="2358.7397" y1="866.9453" y2="907.75"/><g><title>Admin humain (identit&#233; T2) sur PAW T0</title><rect fill="#000000" fill-opacity="0.00000" height="97.3984" width="8" x="2355.5708" y="907.75"/><line style="stroke:#181818;stroke-width:0.5;stroke-dasharray:5.0,5.0;" x1="2358.7397" x2="2358.7397" y1="907.75" y2="1005.1484"/></g><g class="participant participant-head" data-participant="IIQ"><rect fill="#E2E2F0" height="46.5938" rx="2.5" ry="2.5" style="stroke:#181818;stroke-width:0.5;" width="153.2822" x="35" y="93.4297"/><text fill="#000000" font-family="sans-serif" font-size="14" lengthAdjust="spacing" textLength="84.2324" x="69.5249" y="113.4248">SailPoint IIQ</text><text fill="#000000" font-family="sans-serif" font-size="14" lengthAdjust="spacing" textLength="139.2822" x="42" y="129.7217">(Workflow renforc&#233;)</text></g><g class="participant participant-tail" data-participant="IIQ"><rect fill="#E2E2F0" height="46.5938" rx="2.5" ry="2.5" style="stroke:#181818;stroke-width:0.5;" width="153.2822" x="35" y="1004.1484"/><text fill="#000000" font-family="sans-serif" font-size="14" lengthAdjust="spacing" textLength="84.2324" x="69.5249" y="1024.1436">SailPoint IIQ</text><text fill="#000000" font-family="sans-serif" font-size="14" lengthAdjust="spacing" textLength="139.2822" x="42" y="1040.4404">(Workflow renforc&#233;)</text></g><g class="participant participant-head" data-participant="ORCH"><rect fill="#E2E2F0" height="46.5938" rx="2.5" ry="2.5" style="stroke:#181818;stroke-width:0.5;" width="200.9287" x="333.8657" y="93.4297"/><text fill="#000000" font-family="sans-serif" font-size="14" lengthAdjust="spacing" textLength="141.4355" x="363.6123" y="113.4248">Orchestrateur CI/CD</text><text fill="#000000" font-family="sans-serif" font-size="14" lengthAdjust="spacing" textLength="186.9287" x="340.8657" y="129.7217">(GitHub Actions + Ansible)</text></g><g class="participant participant-tail" data-participant="ORCH"><rect fill="#E2E2F0" height="46.5938" rx="2.5" ry="2.5" style="stroke:#181818;stroke-width:0.5;" width="200.9287" x="333.8657" y="1004.1484"/><text fill="#000000" font-family="sans-serif" font-size="14" lengthAdjust="spacing" textLength="141.4355" x="363.6123" y="1024.1436">Orchestrateur CI/CD</text><text fill="#000000" font-family="sans-serif" font-size="14" lengthAdjust="spacing" textLength="186.9287" x="340.8657" y="1040.4404">(GitHub Actions + Ansible)</text></g><g class="participant participant-head" data-participant="PVWA"><text fill="#000000" font-family="sans-serif" font-size="14" lengthAdjust="spacing" textLength="110.6465" x="831.2158" y="121.4248">CyberArk PVWA</text><text fill="#000000" font-family="sans-serif" font-size="14" lengthAdjust="spacing" textLength="192.5752" x="790.2515" y="137.7217">(approvals multiples, vault)</text><path d="M871.5391,72.4297 C871.5391,62.4297 889.5391,62.4297 889.5391,62.4297 C889.5391,62.4297 907.5391,62.4297 907.5391,72.4297 L907.5391,98.4297 C907.5391,108.4297 889.5391,108.4297 889.5391,108.4297 C889.5391,108.4297 871.5391,108.4297 871.5391,98.4297 L871.5391,72.4297" fill="#E2E2F0" style="stroke:#181818;stroke-width:1.5;"/><path d="M871.5391,72.4297 C871.5391,82.4297 889.5391,82.4297 889.5391,82.4297 C889.5391,82.4297 907.5391,82.4297 907.5391,72.4297" fill="none" style="stroke:#181818;stroke-width:1.5;"/></g><g class="participant participant-tail" data-participant="PVWA"><text fill="#000000" font-family="sans-serif" font-size="14" lengthAdjust="spacing" textLength="110.6465" x="831.2158" y="1017.1436">CyberArk PVWA</text><text fill="#000000" font-family="sans-serif" font-size="14" lengthAdjust="spacing" textLength="192.5752" x="790.2515" y="1033.4404">(approvals multiples, vault)</text><path d="M871.5391,1046.7422 C871.5391,1036.7422 889.5391,1036.7422 889.5391,1036.7422 C889.5391,1036.7422 907.5391,1036.7422 907.5391,1046.7422 L907.5391,1072.7422 C907.5391,1082.7422 889.5391,1082.7422 889.5391,1082.7422 C889.5391,1082.7422 871.5391,1082.7422 871.5391,1072.7422 L871.5391,1046.7422" fill="#E2E2F0" style="stroke:#181818;stroke-width:1.5;"/><path d="M871.5391,1046.7422 C871.5391,1056.7422 889.5391,1056.7422 889.5391,1056.7422 C889.5391,1056.7422 907.5391,1056.7422 907.5391,1046.7422" fill="none" style="stroke:#181818;stroke-width:1.5;"/></g><g class="participant participant-head" data-participant="PSM"><rect fill="#E2E2F0" height="46.5938" rx="2.5" ry="2.5" style="stroke:#181818;stroke-width:0.5;" width="155.1826" x="1033.9248" y="93.4297"/><text fill="#000000" font-family="sans-serif" font-size="14" lengthAdjust="spacing" textLength="141.1826" x="1040.9248" y="113.4248">CyberArk PSM/PSMP</text><text fill="#000000" font-family="sans-serif" font-size="14" lengthAdjust="spacing" textLength="134.791" x="1044.1206" y="129.7217">(session broker T0)</text></g><g class="participant participant-tail" data-participant="PSM"><rect fill="#E2E2F0" height="46.5938" rx="2.5" ry="2.5" style="stroke:#181818;stroke-width:0.5;" width="155.1826" x="1033.9248" y="1004.1484"/><text fill="#000000" font-family="sans-serif" font-size="14" lengthAdjust="spacing" textLength="141.1826" x="1040.9248" y="1024.1436">CyberArk PSM/PSMP</text><text fill="#000000" font-family="sans-serif" font-size="14" lengthAdjust="spacing" textLength="134.791" x="1044.1206" y="1040.4404">(session broker T0)</text></g><g class="participant participant-head" data-participant="MGMT_T0"><rect fill="#E2E2F0" height="46.5938" rx="2.5" ry="2.5" style="stroke:#181818;stroke-width:0.5;" width="282.4609" x="1295.6216" y="93.4297"/><text fill="#000000" font-family="sans-serif" font-size="14" lengthAdjust="spacing" textLength="131.7969" x="1370.9536" y="113.4248">Host de gestion T0</text><text fill="#000000" font-family="sans-serif" font-size="14" lengthAdjust="spacing" textLength="268.4609" x="1302.6216" y="129.7217">(Endpoint JEA-T0 hautement restreint)</text></g><g class="participant participant-tail" data-participant="MGMT_T0"><rect fill="#E2E2F0" height="46.5938" rx="2.5" ry="2.5" style="stroke:#181818;stroke-width:0.5;" width="282.4609" x="1295.6216" y="1004.1484"/><text fill="#000000" font-family="sans-serif" font-size="14" lengthAdjust="spacing" textLength="131.7969" x="1370.9536" y="1024.1436">Host de gestion T0</text><text fill="#000000" font-family="sans-serif" font-size="14" lengthAdjust="spacing" textLength="268.4609" x="1302.6216" y="1040.4404">(Endpoint JEA-T0 hautement restreint)</text></g><g class="participant participant-head" data-participant="AD_T0"><rect fill="#E2E2F0" height="46.5938" rx="2.5" ry="2.5" style="stroke:#181818;stroke-width:0.5;" width="196.3623" x="1628.0825" y="93.4297"/><text fill="#000000" font-family="sans-serif" font-size="14" lengthAdjust="spacing" textLength="122.8145" x="1664.8564" y="113.4248">AD DS (T0 scope)</text><text fill="#000000" font-family="sans-serif" font-size="14" lengthAdjust="spacing" textLength="182.3623" x="1635.0825" y="129.7217">OU=Tier0\AdminAccounts</text></g><g class="participant participant-tail" data-participant="AD_T0"><rect fill="#E2E2F0" height="46.5938" rx="2.5" ry="2.5" style="stroke:#181818;stroke-width:0.5;" width="196.3623" x="1628.0825" y="1004.1484"/><text fill="#000000" font-family="sans-serif" font-size="14" lengthAdjust="spacing" textLength="122.8145" x="1664.8564" y="1024.1436">AD DS (T0 scope)</text><text fill="#000000" font-family="sans-serif" font-size="14" lengthAdjust="spacing" textLength="182.3623" x="1635.0825" y="1040.4404">OU=Tier0\AdminAccounts</text></g><g class="participant participant-head" data-participant="APPROVER2"><text fill="#000000" font-family="sans-serif" font-size="14" lengthAdjust="spacing" textLength="191.0508" x="1874.4448" y="137.7217">Approver S&#233;curit&#233; (2e pair)</text><ellipse cx="1972.9702" cy="73.2266" fill="#E2E2F0" rx="8" ry="8" style="stroke:#181818;stroke-width:0.5;"/><path d="M1972.9702,81.2266 L1972.9702,108.2266 M1959.9702,89.2266 L1985.9702,89.2266 M1972.9702,108.2266 L1959.9702,123.2266 M1972.9702,108.2266 L1985.9702,123.2266" fill="none" style="stroke:#181818;stroke-width:0.5;"/></g><g class="participant participant-tail" data-participant="APPROVER2"><text fill="#000000" font-family="sans-serif" font-size="14" lengthAdjust="spacing" textLength="191.0508" x="1874.4448" y="1017.1436">Approver S&#233;curit&#233; (2e pair)</text><ellipse cx="1972.9702" cy="1028.9453" fill="#E2E2F0" rx="8" ry="8" style="stroke:#181818;stroke-width:0.5;"/><path d="M1972.9702,1036.9453 L1972.9702,1063.9453 M1959.9702,1044.9453 L1985.9702,1044.9453 M1972.9702,1063.9453 L1959.9702,1078.9453 M1972.9702,1063.9453 L1985.9702,1078.9453" fill="none" style="stroke:#181818;stroke-width:0.5;"/></g><g class="participant participant-head" data-participant="APPROVER1"><text fill="#000000" font-family="sans-serif" font-size="14" lengthAdjust="spacing" textLength="120.2441" x="2081.4956" y="137.7217">Approver S&#233;cu/IT</text><ellipse cx="2144.6177" cy="73.2266" fill="#E2E2F0" rx="8" ry="8" style="stroke:#181818;stroke-width:0.5;"/><path d="M2144.6177,81.2266 L2144.6177,108.2266 M2131.6177,89.2266 L2157.6177,89.2266 M2144.6177,108.2266 L2131.6177,123.2266 M2144.6177,108.2266 L2157.6177,123.2266" fill="none" style="stroke:#181818;stroke-width:0.5;"/></g><g class="participant participant-tail" data-participant="APPROVER1"><text fill="#000000" font-family="sans-serif" font-size="14" lengthAdjust="spacing" textLength="120.2441" x="2081.4956" y="1017.1436">Approver S&#233;cu/IT</text><ellipse cx="2144.6177" cy="1028.9453" fill="#E2E2F0" rx="8" ry="8" style="stroke:#181818;stroke-width:0.5;"/><path d="M2144.6177,1036.9453 L2144.6177,1063.9453 M2131.6177,1044.9453 L2157.6177,1044.9453 M2144.6177,1063.9453 L2131.6177,1078.9453 M2144.6177,1063.9453 L2157.6177,1078.9453" fill="none" style="stroke:#181818;stroke-width:0.5;"/></g><g class="participant participant-head" data-participant="HUMAN_T0"><text fill="#000000" font-family="sans-serif" font-size="14" lengthAdjust="spacing" textLength="277.6621" x="2217.7397" y="137.7217">Admin humain (identit&#233; T2) sur PAW T0</text><ellipse cx="2359.5708" cy="73.2266" fill="#E2E2F0" rx="8" ry="8" style="stroke:#181818;stroke-width:0.5;"/><path d="M2359.5708,81.2266 L2359.5708,108.2266 M2346.5708,89.2266 L2372.5708,89.2266 M2359.5708,108.2266 L2346.5708,123.2266 M2359.5708,108.2266 L2372.5708,123.2266" fill="none" style="stroke:#181818;stroke-width:0.5;"/></g><g class="participant participant-tail" data-participant="HUMAN_T0"><text fill="#000000" font-family="sans-serif" font-size="14" lengthAdjust="spacing" textLength="277.6621" x="2217.7397" y="1017.1436">Admin humain (identit&#233; T2) sur PAW T0</text><ellipse cx="2359.5708" cy="1028.9453" fill="#E2E2F0" rx="8" ry="8" style="stroke:#181818;stroke-width:0.5;"/><path d="M2359.5708,1036.9453 L2359.5708,1063.9453 M2346.5708,1044.9453 L2372.5708,1044.9453 M2359.5708,1063.9453 L2346.5708,1078.9453 M2359.5708,1063.9453 L2372.5708,1078.9453" fill="none" style="stroke:#181818;stroke-width:0.5;"/></g><rect fill="#EEEEEE" height="3" style="stroke:#EEEEEE;stroke-width:1;" width="2516.4019" x="0" y="171.5898"/><line style="stroke:#000000;stroke-width:1;" x1="0" x2="2516.4019" y1="171.5898" y2="171.5898"/><line style="stroke:#000000;stroke-width:1;" x1="0" x2="2516.4019" y1="174.5898" y2="174.5898"/><rect fill="#EEEEEE" height="23.1328" style="stroke:#000000;stroke-width:2;" width="139.3091" x="1188.5464" y="161.0234"/><text fill="#000000" font-family="sans-serif" font-size="13" font-weight="bold" lengthAdjust="spacing" textLength="120.7832" x="1194.5464" y="177.0903">Demande via IIQ</text><g class="message" data-participant-1="HUMAN_T0" data-participant-2="IIQ"><polygon fill="#181818" points="122.6411,211.2891,112.6411,215.2891,122.6411,219.2891,118.6411,215.2891" style="stroke:#181818;stroke-width:1;"/><line style="stroke:#181818;stroke-width:1;" x1="116.6411" x2="2358.5708" y1="215.2891" y2="215.2891"/><text fill="#000000" font-family="sans-serif" font-size="13" lengthAdjust="spacing" textLength="297.6289" x="128.6411" y="210.2231">Demande acc&#232;s T0 (raison, ticket, change ID)</text></g><g class="message" data-participant-1="IIQ" data-participant-2="IIQ"><line style="stroke:#181818;stroke-width:1;" x1="111.6411" x2="153.6411" y1="244.4219" y2="244.4219"/><line style="stroke:#181818;stroke-width:1;" x1="153.6411" x2="153.6411" y1="244.4219" y2="257.4219"/><line style="stroke:#181818;stroke-width:1;" x1="112.6411" x2="153.6411" y1="257.4219" y2="257.4219"/><polygon fill="#181818" points="122.6411,253.4219,112.6411,257.4219,122.6411,261.4219,118.6411,257.4219" style="stroke:#181818;stroke-width:1;"/><text fill="#000000" font-family="sans-serif" font-size="13" lengthAdjust="spacing" textLength="295.2422" x="118.6411" y="239.356">Workflow renforc&#233; (au moins 2 approbations)</text></g><g class="message" data-participant-1="IIQ" data-participant-2="ORCH"><polygon fill="#181818" points="422.3301,282.5547,432.3301,286.5547,422.3301,290.5547,426.3301,286.5547" style="stroke:#181818;stroke-width:1;"/><line style="stroke:#181818;stroke-width:1;" x1="111.6411" x2="428.3301" y1="286.5547" y2="286.5547"/><text fill="#000000" font-family="sans-serif" font-size="13" lengthAdjust="spacing" textLength="258.6543" x="118.6411" y="281.4888">Webhook "Grant T0 JIT" (payload sign&#233;)</text></g><rect fill="#EEEEEE" height="3" style="stroke:#EEEEEE;stroke-width:1;" width="2516.4019" x="0" y="315.1211"/><line style="stroke:#000000;stroke-width:1;" x1="0" x2="2516.4019" y1="315.1211" y2="315.1211"/><line style="stroke:#000000;stroke-width:1;" x1="0" x2="2516.4019" y1="318.1211" y2="318.1211"/><rect fill="#EEEEEE" height="23.1328" style="stroke:#000000;stroke-width:2;" width="205.3755" x="1155.5132" y="304.5547"/><text fill="#000000" font-family="sans-serif" font-size="13" font-weight="bold" lengthAdjust="spacing" textLength="186.8496" x="1161.5132" y="320.6216">Pr&#233;paration &amp; garde-fous</text><g class="message" data-participant-1="ORCH" data-participant-2="AD_T0"><polygon fill="#181818" points="1714.2637,354.8203,1724.2637,358.8203,1714.2637,362.8203,1718.2637,358.8203" style="stroke:#181818;stroke-width:1;"/><line style="stroke:#181818;stroke-width:1;" x1="434.3301" x2="1720.2637" y1="358.8203" y2="358.8203"/><text fill="#000000" font-family="sans-serif" font-size="13" lengthAdjust="spacing" textLength="365.4727" x="441.3301" y="353.7544">S'assure existence "a-&lt;user0&gt;" (aucune appartenance)</text></g><g class="message" data-participant-1="ORCH" data-participant-2="PVWA"><polygon fill="#181818" points="877.5391,383.9531,887.5391,387.9531,877.5391,391.9531,881.5391,387.9531" style="stroke:#181818;stroke-width:1;"/><line style="stroke:#181818;stroke-width:1;" x1="434.3301" x2="883.5391" y1="387.9531" y2="387.9531"/><text fill="#000000" font-family="sans-serif" font-size="13" lengthAdjust="spacing" textLength="431.209" x="441.3301" y="382.8872">Policy T0 (double approbation, session recording, time &lt;= 60min)</text></g><g class="message" data-participant-1="ORCH" data-participant-2="PVWA"><polygon fill="#181818" points="877.5391,413.0859,887.5391,417.0859,877.5391,421.0859,881.5391,417.0859" style="stroke:#181818;stroke-width:1;"/><line style="stroke:#181818;stroke-width:1;" x1="434.3301" x2="883.5391" y1="417.0859" y2="417.0859"/><text fill="#000000" font-family="sans-serif" font-size="13" lengthAdjust="spacing" textLength="331.1064" x="441.3301" y="412.02">Onboard "a-&lt;user0&gt;" (no standing secret en clair)</text></g><path d="M894,430.0859 L894,470.0859 L1231,470.0859 L1231,440.0859 L1221,430.0859 L894,430.0859" fill="#FEFFDD" style="stroke:#181818;stroke-width:0.5;"/><path d="M1221,430.0859 L1221,440.0859 L1231,440.0859 L1221,430.0859" fill="#FEFFDD" style="stroke:#181818;stroke-width:0.5;"/><text fill="#000000" font-family="sans-serif" font-size="13" lengthAdjust="spacing" textLength="316.3862" x="900" y="447.1528">AuthN &#224; PVWA via identit&#233; T2 (SSO) sur PAW T0,</text><text fill="#000000" font-family="sans-serif" font-size="13" lengthAdjust="spacing" textLength="235.7329" x="900" y="462.2856">pas de licence sur le compte admin.</text><rect fill="#EEEEEE" height="3" style="stroke:#EEEEEE;stroke-width:1;" width="2516.4019" x="0" y="495.918"/><line style="stroke:#000000;stroke-width:1;" x1="0" x2="2516.4019" y1="495.918" y2="495.918"/><line style="stroke:#000000;stroke-width:1;" x1="0" x2="2516.4019" y1="498.918" y2="498.918"/><rect fill="#EEEEEE" height="23.1328" style="stroke:#000000;stroke-width:2;" width="93.0664" x="1211.6677" y="485.3516"/><text fill="#000000" font-family="sans-serif" font-size="13" font-weight="bold" lengthAdjust="spacing" textLength="74.5405" x="1217.6677" y="501.4185">Activation</text><g class="message" data-participant-1="HUMAN_T0" data-participant-2="PVWA"><polygon fill="#181818" points="900.5391,535.6172,890.5391,539.6172,900.5391,543.6172,896.5391,539.6172" style="stroke:#181818;stroke-width:1;"/><line style="stroke:#181818;stroke-width:1;" x1="894.5391" x2="2358.5708" y1="539.6172" y2="539.6172"/><text fill="#000000" font-family="sans-serif" font-size="13" lengthAdjust="spacing" textLength="253.2397" x="906.5391" y="534.5513">Login SSO (identit&#233; T2, PAW T0 requis)</text></g><g class="message" data-participant-1="PVWA" data-participant-2="APPROVER1"><polygon fill="#181818" points="2132.6177,564.75,2142.6177,568.75,2132.6177,572.75,2136.6177,568.75" style="stroke:#181818;stroke-width:1;"/><line style="stroke:#181818;stroke-width:1;" x1="889.5391" x2="2138.6177" y1="568.75" y2="568.75"/><text fill="#000000" font-family="sans-serif" font-size="13" lengthAdjust="spacing" textLength="123.1255" x="896.5391" y="563.6841">Approval #1 (MFA)</text></g><g class="message" data-participant-1="PVWA" data-participant-2="APPROVER2"><polygon fill="#181818" points="1960.9702,593.8828,1970.9702,597.8828,1960.9702,601.8828,1964.9702,597.8828" style="stroke:#181818;stroke-width:1;"/><line style="stroke:#181818;stroke-width:1;" x1="889.5391" x2="1966.9702" y1="597.8828" y2="597.8828"/><text fill="#000000" font-family="sans-serif" font-size="13" lengthAdjust="spacing" textLength="123.1255" x="896.5391" y="592.8169">Approval #2 (MFA)</text></g><g class="message" data-participant-1="APPROVER1" data-participant-2="PVWA"><polygon fill="#181818" points="900.5391,623.0156,890.5391,627.0156,900.5391,631.0156,896.5391,627.0156" style="stroke:#181818;stroke-width:1;"/><line style="stroke:#181818;stroke-width:1;stroke-dasharray:2.0,2.0;" x1="894.5391" x2="2143.6177" y1="627.0156" y2="627.0156"/><text fill="#000000" font-family="sans-serif" font-size="13" lengthAdjust="spacing" textLength="54.3867" x="906.5391" y="621.9497">Approve</text></g><g class="message" data-participant-1="APPROVER2" data-participant-2="PVWA"><polygon fill="#181818" points="900.5391,652.1484,890.5391,656.1484,900.5391,660.1484,896.5391,656.1484" style="stroke:#181818;stroke-width:1;"/><line style="stroke:#181818;stroke-width:1;stroke-dasharray:2.0,2.0;" x1="894.5391" x2="1971.9702" y1="656.1484" y2="656.1484"/><text fill="#000000" font-family="sans-serif" font-size="13" lengthAdjust="spacing" textLength="54.3867" x="906.5391" y="651.0825">Approve</text></g><rect fill="#EEEEEE" height="3" style="stroke:#EEEEEE;stroke-width:1;" width="2516.4019" x="0" y="684.7148"/><line style="stroke:#000000;stroke-width:1;" x1="0" x2="2516.4019" y1="684.7148" y2="684.7148"/><line style="stroke:#000000;stroke-width:1;" x1="0" x2="2516.4019" y1="687.7148" y2="687.7148"/><rect fill="#EEEEEE" height="23.1328" style="stroke:#000000;stroke-width:2;" width="141.1689" x="1187.6165" y="674.1484"/><text fill="#000000" font-family="sans-serif" font-size="13" font-weight="bold" lengthAdjust="spacing" textLength="122.6431" x="1193.6165" y="690.2153">Ex&#233;cution JEA T0</text><g class="message" data-participant-1="HUMAN_T0" data-participant-2="PSM"><polygon fill="#181818" points="1122.5161,724.4141,1112.5161,728.4141,1122.5161,732.4141,1118.5161,728.4141" style="stroke:#181818;stroke-width:1;"/><line style="stroke:#181818;stroke-width:1;" x1="1116.5161" x2="2358.5708" y1="728.4141" y2="728.4141"/><text fill="#000000" font-family="sans-serif" font-size="13" lengthAdjust="spacing" textLength="276.6118" x="1128.5161" y="723.3481">Start session vers MGMT_T0 (ticket PVWA)</text></g><g class="message" data-participant-1="PSM" data-participant-2="MGMT_T0"><polygon fill="#181818" points="1424.8521,753.5469,1434.8521,757.5469,1424.8521,761.5469,1428.8521,757.5469" style="stroke:#181818;stroke-width:1;"/><line style="stroke:#181818;stroke-width:1;" x1="1111.5161" x2="1430.8521" y1="757.5469" y2="757.5469"/><text fill="#000000" font-family="sans-serif" font-size="13" lengthAdjust="spacing" textLength="301.3359" x="1118.5161" y="752.481">JEA endpoint "JEA-AD-T0" (cmdlets minimales)</text></g><g class="message" data-participant-1="HUMAN_T0" data-participant-2="MGMT_T0"><polygon fill="#181818" points="1447.8521,782.6797,1437.8521,786.6797,1447.8521,790.6797,1443.8521,786.6797" style="stroke:#181818;stroke-width:1;"/><line style="stroke:#181818;stroke-width:1;" x1="1441.8521" x2="2358.5708" y1="786.6797" y2="786.6797"/><text fill="#000000" font-family="sans-serif" font-size="13" lengthAdjust="spacing" textLength="242.3599" x="1453.8521" y="781.6138">Commandes strictement whiteliste&#769;es</text></g><g class="message" data-participant-1="MGMT_T0" data-participant-2="AD_T0"><polygon fill="#181818" points="1714.2637,811.8125,1724.2637,815.8125,1714.2637,819.8125,1718.2637,815.8125" style="stroke:#181818;stroke-width:1;"/><line style="stroke:#181818;stroke-width:1;" x1="1436.8521" x2="1720.2637" y1="815.8125" y2="815.8125"/><text fill="#000000" font-family="sans-serif" font-size="13" lengthAdjust="spacing" textLength="149.8555" x="1443.8521" y="810.7466">Applique changements</text></g><rect fill="#EEEEEE" height="3" style="stroke:#EEEEEE;stroke-width:1;" width="2516.4019" x="0" y="844.3789"/><line style="stroke:#000000;stroke-width:1;" x1="0" x2="2516.4019" y1="844.3789" y2="844.3789"/><line style="stroke:#000000;stroke-width:1;" x1="0" x2="2516.4019" y1="847.3789" y2="847.3789"/><rect fill="#EEEEEE" height="23.1328" style="stroke:#000000;stroke-width:2;" width="144.3618" x="1186.02" y="833.8125"/><text fill="#000000" font-family="sans-serif" font-size="13" font-weight="bold" lengthAdjust="spacing" textLength="125.8359" x="1192.02" y="849.8794">Extinction stricte</text><text fill="#000000" font-family="sans-serif" font-size="11" lengthAdjust="spacing" textLength="74.626" x="1198.293" y="891.1558">fin de fen&#234;tre</text><g class="message" data-participant-1="PVWA" data-participant-2="AD_T0"><polygon fill="#181818" points="1714.2637,924.8828,1724.2637,928.8828,1714.2637,932.8828,1718.2637,928.8828" style="stroke:#181818;stroke-width:1;"/><line style="stroke:#181818;stroke-width:1;" x1="889.5391" x2="1720.2637" y1="928.8828" y2="928.8828"/><text fill="#000000" font-family="sans-serif" font-size="13" lengthAdjust="spacing" textLength="229.1567" x="896.5391" y="923.8169">Retire appartenance JIT (si utilis&#233;e)</text></g><g class="message" data-participant-1="PSM" data-participant-2="PVWA"><polygon fill="#181818" points="900.5391,954.0156,890.5391,958.0156,900.5391,962.0156,896.5391,958.0156" style="stroke:#181818;stroke-width:1;"/><line style="stroke:#181818;stroke-width:1;" x1="894.5391" x2="1110.5161" y1="958.0156" y2="958.0156"/><text fill="#000000" font-family="sans-serif" font-size="13" lengthAdjust="spacing" textLength="197.9771" x="906.5391" y="952.9497">Termine + check-in + rotation</text></g><g class="message" data-participant-1="ORCH" data-participant-2="IIQ"><polygon fill="#181818" points="122.6411,983.1484,112.6411,987.1484,122.6411,991.1484,118.6411,987.1484" style="stroke:#181818;stroke-width:1;"/><line style="stroke:#181818;stroke-width:1;" x1="116.6411" x2="433.3301" y1="987.1484" y2="987.1484"/><text fill="#000000" font-family="sans-serif" font-size="13" lengthAdjust="spacing" textLength="298.689" x="128.6411" y="982.0825">Journal complet + artefacts (transcripts/hash)</text></g><!--SRC=[TLNDZXf74Bxp52KisOCCkvY3PQsCfJ73_icOoOAzbvMYfgU05ZFTkBjdlNjBtY4Fa6Csvxm1rpn5dYHLFJ0BE3dHJDVlLzzNxPNF4QPTYBD2QVZdbzyWmKBe325x9QJS_E7W-ceAXNXGXSWXkhhw2JeVO6pb4fstmcDf-KFwzJO-JISZFbyFOmv9fpYXGwlHS2kbryAA0b9XlP9gBRHFHPOflO1UT-_-etdOVN_JRJHcvW6QKuMsyuPonoDukPTQ6TrgmelaxJ0-VzS0M3_7XkP4g3mrYevKyfsERerTpNFp7IpgkR5oyqI-ml7jiUjXSuEhqq520IwKlond44lEw-0rnDgfMOvLcF7DuBA1EWEgUB_iBaGVXMCN0bHbgBtocoTg8nbmxUV9C1aEg81CU34J3g4vU9oXZUqgG4fvnNfjpRt87HHbxjKwHzU6Uq7dAZER7NVm76Cougca5CUXSrp6p9eLMfvBvJuP7NjV6kU16B30gl1fbzo7Ebi7E6cw7PhkKfGU2-g702MiaAwgWAEBqVJdQVSuA54XcK14dawQDRRkzFXBdo7gtjq5yiLIcb9x5uB42OSun3Ebif2G6nZjxUOlme407BvBuk4v9HFI6qjf0bhKtsJp94iRm8vwIBKeMzKNf-dD-ElmflT_JgTNqmF3Dtk6GINBiX3q4psFSzfhWIEkfF4jeHMyBx-Cuiy7JVJxjRRkbM3YGR_VsDcnNEZJMMspLH_TH5OePtGR2CqL-ZR8fT0BXAkarTZgCNZ-I768H0a5ZSr13mAHPa4shdPatf8dpfR6hA1vONbObFEQGOZMuZ4t8WEd5fe44tf8xUQ9jHgeyH8MmcROcPlISJSShX8-jNG6arV24Iu8-A1eU5eIlqNdVUbex1-QN9qiDN9bH1NKWWnQTGmczXca9bVoCS2GcPBqjjz76tQijYYDvRN1A1K8x_lmjal3EWutrZD35H-MeGquJw3prd4eBNf03J9dpZIq8TPPjLXwCFETskBIBp_3vlVmFunpdmmGJIRZVKQqWneSYugw2JZm9JKZJR6c-8A9THAumla2qBnfxYkOZtXIjVB9B8Y5bEcGYUrjJeBaMwbeqg54dicEpsSGRtSAlA2rEZgFVpJgxHlrjaPr1EZKLMorKz_r_kEEkna-iBP2DzltuRYfoOW8uua8zL19alK-WQXYVmXDzLPFpVRoBCJ4tOfgyewAamvBCP95bgEdxQaqFs58YEodhICCJ164vuWBLidjSlk-L1vp9k_Vlw9hx8fvfZZrcAjl9Mv5oKvksx1NEZmMku3SySd92SnfRCI4EUhDdxGvWRuzurz5lK6lxA4mmZiSEGK48XMqUS8QXGhjALhg4UbbekTBhZgKvJLOumE5QXc4JN5jIgjfiim-0eViECsSjfmZd6a7E6dLshlJfN3Brhy0]--></g></svg>